<svg width="197" height="66" viewBox="0 0 197 66" fill="none" xmlns="http://www.w3.org/2000/svg">
<path fill-rule="evenodd" clip-rule="evenodd" d="M50.071 28.8339C50.3079 26.1778 50.7541 20.7708 49.3684 18.8191C48.6351 17.7863 44.1369 15.2182 42.6125 14.2327L32.199 7.64712C28.6491 5.60079 26.1054 2.73644 19.9329 6.32288L9.17423 12.5658C7.44169 13.5605 3.42767 15.7771 2.25032 16.9787C1.61805 17.6237 0.389701 19.4774 0.117751 20.5169C-0.0292219 21.0744 -0.00975559 30.9311 0.117362 31.7836C0.805508 31.715 8.19895 27.324 9.5073 26.5892C12.6601 24.8184 15.6961 23.056 18.8215 21.2328C20.3432 20.3465 21.9185 19.4516 23.4871 18.565C25.4984 17.4279 24.689 17.6812 28.1614 19.7069L37.1942 25.312C36.7795 25.8925 29.8947 29.5926 28.5821 30.3402C26.4772 31.5387 25.4367 32.6492 24.154 31.8962L15.4577 26.7515C14.4267 26.1232 14.1053 26.5171 13.1668 27.0769L6.58322 30.833C5.69145 31.3312 2.77709 32.6485 2.21801 33.5367C3.61922 34.1665 20.9952 44.664 23.477 46.091C25.4511 47.2261 25.2642 46.8753 27.2159 45.6585C29.936 43.9622 35.0772 41.1928 38.0456 39.4891C40.4182 38.1274 42.8274 36.7107 45.179 35.2888C46.3001 34.6111 47.7196 33.6863 48.472 32.9102C49.4033 31.9498 49.9131 30.5996 50.071 28.8339Z" fill="url(#paint0_linear_501_2738)"/>
<path fill-rule="evenodd" clip-rule="evenodd" d="M49.8614 38.0124C48.8844 35.2165 44.8616 37.8655 42.6288 39.2372L28.4193 47.3653C23.751 49.7211 26.4763 50.0831 21.3106 47.2501C19.261 46.1257 0.885039 35.1603 0.150172 35.0649C-0.0374869 37.0633 -0.128396 44.0203 0.364695 45.7166C1.25646 48.7846 3.332 49.8518 5.9417 51.3092C8.29872 52.6261 10.6334 54.1235 13.0317 55.3857C15.4609 56.6649 18.1103 58.4926 20.0404 59.548C22.9713 61.1501 24.9147 62.3022 28.4166 60.3804L42.6113 52.2392C45.0317 50.7215 47.723 49.6595 49.0806 47.5348C50.2445 45.7135 50.6424 40.2488 49.8614 38.0124Z" fill="url(#paint1_linear_501_2738)"/>
<path d="M66.292 39.32C64.5054 39.32 62.9054 38.9733 61.492 38.28C60.1054 37.5867 59.0254 36.5333 58.252 35.12C57.4787 33.68 57.092 31.8533 57.092 29.64V17.48H63.332V28.72C63.332 30.5067 63.7054 31.8267 64.452 32.68C65.2254 33.5067 66.3054 33.92 67.692 33.92C68.652 33.92 69.5054 33.72 70.252 33.32C70.9987 32.8933 71.5854 32.2533 72.012 31.4C72.4387 30.52 72.652 29.4267 72.652 28.12V17.48H78.892V39H72.972V33.08L74.052 34.8C73.332 36.2933 72.2654 37.4267 70.852 38.2C69.4654 38.9467 67.9454 39.32 66.292 39.32ZM88.3739 39V16.28H79.4139V11H103.814V16.28H94.8539V39H88.3739ZM106.392 39V17.48H112.352V23.56L111.512 21.8C112.152 20.28 113.178 19.1333 114.592 18.36C116.005 17.56 117.725 17.16 119.752 17.16V22.92C119.485 22.8933 119.245 22.88 119.032 22.88C118.818 22.8533 118.592 22.84 118.352 22.84C116.645 22.84 115.258 23.3333 114.192 24.32C113.152 25.28 112.632 26.7867 112.632 28.84V39H106.392ZM135.256 39V34.8L134.856 33.88V26.36C134.856 25.0267 134.442 23.9867 133.616 23.24C132.816 22.4933 131.576 22.12 129.896 22.12C128.749 22.12 127.616 22.3067 126.496 22.68C125.402 23.0267 124.469 23.5067 123.696 24.12L121.456 19.76C122.629 18.9333 124.042 18.2933 125.696 17.84C127.349 17.3867 129.029 17.16 130.736 17.16C134.016 17.16 136.562 17.9333 138.376 19.48C140.189 21.0267 141.096 23.44 141.096 26.72V39H135.256ZM128.696 39.32C127.016 39.32 125.576 39.04 124.376 38.48C123.176 37.8933 122.256 37.1067 121.616 36.12C120.976 35.1333 120.656 34.0267 120.656 32.8C120.656 31.52 120.962 30.4 121.576 29.44C122.216 28.48 123.216 27.7333 124.576 27.2C125.936 26.64 127.709 26.36 129.896 26.36H135.616V30H130.576C129.109 30 128.096 30.24 127.536 30.72C127.002 31.2 126.736 31.8 126.736 32.52C126.736 33.32 127.042 33.96 127.656 34.44C128.296 34.8933 129.162 35.12 130.256 35.12C131.296 35.12 132.229 34.88 133.056 34.4C133.882 33.8933 134.482 33.16 134.856 32.2L135.816 35.08C135.362 36.4667 134.536 37.52 133.336 38.24C132.136 38.96 130.589 39.32 128.696 39.32ZM157.3 39.32C154.98 39.32 152.913 38.8533 151.1 37.92C149.286 36.96 147.86 35.64 146.82 33.96C145.806 32.28 145.3 30.3733 145.3 28.24C145.3 26.08 145.806 24.1733 146.82 22.52C147.86 20.84 149.286 19.5333 151.1 18.6C152.913 17.64 154.98 17.16 157.3 17.16C159.566 17.16 161.54 17.64 163.22 18.6C164.9 19.5333 166.14 20.88 166.94 22.64L162.1 25.24C161.54 24.2267 160.833 23.48 159.98 23C159.153 22.52 158.246 22.28 157.26 22.28C156.193 22.28 155.233 22.52 154.38 23C153.526 23.48 152.846 24.16 152.34 25.04C151.86 25.92 151.62 26.9867 151.62 28.24C151.62 29.4933 151.86 30.56 152.34 31.44C152.846 32.32 153.526 33 154.38 33.48C155.233 33.96 156.193 34.2 157.26 34.2C158.246 34.2 159.153 33.9733 159.98 33.52C160.833 33.04 161.54 32.28 162.1 31.24L166.94 33.88C166.14 35.6133 164.9 36.96 163.22 37.92C161.54 38.8533 159.566 39.32 157.3 39.32ZM175.575 34.6L175.735 27L185.775 17.48H193.215L183.575 27.28L180.335 29.92L175.575 34.6ZM170.415 39V9.32H176.655V39H170.415ZM186.455 39L179.175 29.96L183.095 25.12L194.015 39H186.455Z" fill="black"/>
<path d="M124.01 48.82H130.97V50.96H124.01V48.82ZM124.21 54.82H132.11V57H121.61V43H131.83V45.18H124.21V54.82ZM140.829 46.2C141.682 46.2 142.442 46.3667 143.109 46.7C143.789 47.0333 144.322 47.5467 144.709 48.24C145.096 48.92 145.289 49.8 145.289 50.88V57H142.789V51.2C142.789 50.2533 142.562 49.5467 142.109 49.08C141.669 48.6133 141.049 48.38 140.249 48.38C139.662 48.38 139.142 48.5 138.689 48.74C138.236 48.98 137.882 49.34 137.629 49.82C137.389 50.2867 137.269 50.88 137.269 51.6V57H134.769V46.32H137.149V49.2L136.729 48.32C137.102 47.64 137.642 47.12 138.349 46.76C139.069 46.3867 139.896 46.2 140.829 46.2ZM153.5 57.14C152.313 57.14 151.273 56.9067 150.38 56.44C149.5 55.96 148.813 55.3067 148.32 54.48C147.84 53.6533 147.6 52.7133 147.6 51.66C147.6 50.5933 147.833 49.6533 148.3 48.84C148.78 48.0133 149.433 47.3667 150.26 46.9C151.1 46.4333 152.053 46.2 153.12 46.2C154.16 46.2 155.087 46.4267 155.9 46.88C156.713 47.3333 157.353 47.9733 157.82 48.8C158.287 49.6267 158.52 50.6 158.52 51.72C158.52 51.8267 158.513 51.9467 158.5 52.08C158.5 52.2133 158.493 52.34 158.48 52.46H149.58V50.8H157.16L156.18 51.32C156.193 50.7067 156.067 50.1667 155.8 49.7C155.533 49.2333 155.167 48.8667 154.7 48.6C154.247 48.3333 153.72 48.2 153.12 48.2C152.507 48.2 151.967 48.3333 151.5 48.6C151.047 48.8667 150.687 49.24 150.42 49.72C150.167 50.1867 150.04 50.74 150.04 51.38V51.78C150.04 52.42 150.187 52.9867 150.48 53.48C150.773 53.9733 151.187 54.3533 151.72 54.62C152.253 54.8867 152.867 55.02 153.56 55.02C154.16 55.02 154.7 54.9267 155.18 54.74C155.66 54.5533 156.087 54.26 156.46 53.86L157.8 55.4C157.32 55.96 156.713 56.3933 155.98 56.7C155.26 56.9933 154.433 57.14 153.5 57.14ZM160.921 57V46.32H163.301V49.26L163.021 48.4C163.341 47.68 163.841 47.1333 164.521 46.76C165.215 46.3867 166.075 46.2 167.101 46.2V48.58C166.995 48.5533 166.895 48.54 166.801 48.54C166.708 48.5267 166.615 48.52 166.521 48.52C165.575 48.52 164.821 48.8 164.261 49.36C163.701 49.9067 163.421 50.7267 163.421 51.82V57H160.921ZM173.964 61.02C172.978 61.02 172.011 60.8867 171.064 60.62C170.131 60.3667 169.364 59.9933 168.764 59.5L169.884 57.62C170.351 58.0067 170.938 58.3133 171.644 58.54C172.364 58.78 173.091 58.9 173.824 58.9C174.998 58.9 175.858 58.6267 176.404 58.08C176.951 57.5467 177.224 56.74 177.224 55.66V53.76L177.424 51.34L177.344 48.92V46.32H179.724V55.38C179.724 57.3133 179.231 58.7333 178.244 59.64C177.258 60.56 175.831 61.02 173.964 61.02ZM173.644 56.52C172.631 56.52 171.711 56.3067 170.884 55.88C170.071 55.44 169.424 54.8333 168.944 54.06C168.478 53.2867 168.244 52.38 168.244 51.34C168.244 50.3133 168.478 49.4133 168.944 48.64C169.424 47.8667 170.071 47.2667 170.884 46.84C171.711 46.4133 172.631 46.2 173.644 46.2C174.551 46.2 175.364 46.38 176.084 46.74C176.804 47.1 177.378 47.66 177.804 48.42C178.244 49.18 178.464 50.1533 178.464 51.34C178.464 52.5267 178.244 53.5067 177.804 54.28C177.378 55.04 176.804 55.6067 176.084 55.98C175.364 56.34 174.551 56.52 173.644 56.52ZM174.024 54.4C174.651 54.4 175.211 54.2733 175.704 54.02C176.198 53.7533 176.578 53.3933 176.844 52.94C177.124 52.4733 177.264 51.94 177.264 51.34C177.264 50.74 177.124 50.2133 176.844 49.76C176.578 49.2933 176.198 48.94 175.704 48.7C175.211 48.4467 174.651 48.32 174.024 48.32C173.398 48.32 172.831 48.4467 172.324 48.7C171.831 48.94 171.444 49.2933 171.164 49.76C170.898 50.2133 170.764 50.74 170.764 51.34C170.764 51.94 170.898 52.4733 171.164 52.94C171.444 53.3933 171.831 53.7533 172.324 54.02C172.831 54.2733 173.398 54.4 174.024 54.4ZM183.891 61.02C183.371 61.02 182.851 60.9333 182.331 60.76C181.811 60.5867 181.378 60.3467 181.031 60.04L182.031 58.2C182.284 58.4267 182.571 58.6067 182.891 58.74C183.211 58.8733 183.538 58.94 183.871 58.94C184.324 58.94 184.691 58.8267 184.971 58.6C185.251 58.3733 185.511 57.9933 185.751 57.46L186.371 56.06L186.571 55.76L190.611 46.32H193.011L188.011 57.86C187.678 58.66 187.304 59.2933 186.891 59.76C186.491 60.2267 186.038 60.5533 185.531 60.74C185.038 60.9267 184.491 61.02 183.891 61.02ZM186.091 57.38L181.271 46.32H183.871L187.791 55.54L186.091 57.38Z" fill="black"/>
<defs>
<linearGradient id="paint0_linear_501_2738" x1="0.493164" y1="24.6002" x2="50.4932" y2="24.6002" gradientUnits="userSpaceOnUse">
<stop stop-color="#B23BAC"/>
<stop offset="1" stop-color="#7C49CB"/>
</linearGradient>
<linearGradient id="paint1_linear_501_2738" x1="0.493164" y1="44.6001" x2="50.4932" y2="46.1001" gradientUnits="userSpaceOnUse">
<stop stop-color="#B23BAC"/>
<stop offset="1" stop-color="#7C49CB"/>
</linearGradient>
</defs>
</svg>
