<svg width="250" height="250" viewBox="0 0 250 250" fill="none" xmlns="http://www.w3.org/2000/svg">
    <g clip-path="url(#clip0_343_235)">
        <path d="M0 0H250V250H0V0Z" fill="white"/>
        <path d="M0 0H250V250H0V0Z" fill="white"/>
        <path d="M125.929 47.3464C176.496 47.35 217.488 88.3447 217.486 138.913C217.484 189.48 176.489 230.473 125.921 230.471C75.3536 230.47 34.3607 189.477 34.3607 138.909C34.3607 114.625 44.0071 91.3357 61.1786 74.1643C78.35 56.9929 101.639 47.3464 125.923 47.3464" fill="#DBF9EE"/>
        <path d="M131.057 24.2875C131.056 25.475 130.584 26.6136 129.744 27.4533C128.905 28.293 127.766 28.7651 126.579 28.7661C125.391 28.7651 124.252 28.293 123.413 27.4533C122.573 26.6136 122.101 25.475 122.1 24.2875C122.1 24.0804 122.114 23.875 122.143 23.6697C122.308 22.5526 122.888 21.539 123.768 20.8315C124.648 20.1239 125.763 19.7746 126.889 19.8533C128.016 19.9321 129.071 20.433 129.844 21.2561C130.617 22.0792 131.051 23.1637 131.059 24.2929M224.507 144.498C224.507 147.246 222.28 149.473 219.532 149.473C216.784 149.473 214.557 147.246 214.557 144.5C214.559 143.181 215.083 141.917 216.015 140.984C216.947 140.051 218.211 139.526 219.53 139.523C220.85 139.525 222.114 140.049 223.047 140.982C223.98 141.914 224.505 143.179 224.507 144.498ZM45.8411 112.586C47.1561 112.583 48.4163 112.058 49.3451 111.127C50.2738 110.196 50.7951 108.935 50.7946 107.62C50.7932 106.304 50.2698 105.043 49.3394 104.113C48.4089 103.184 47.1475 102.661 45.8321 102.661C44.5168 102.661 43.2554 103.184 42.3249 104.113C41.3945 105.043 40.8711 106.304 40.8696 107.62C40.8692 108.935 41.3905 110.196 42.3192 111.127C43.2479 112.058 44.5082 112.583 45.8232 112.586M45.8393 112.586C47.1544 112.583 48.4146 112.058 49.3433 111.127C50.272 110.196 50.7933 108.935 50.7929 107.62C50.7914 106.304 50.268 105.043 49.3376 104.113C48.4071 103.184 47.1457 102.661 45.8304 102.661C44.515 102.661 43.2536 103.184 42.3231 104.113C41.3927 105.043 40.8693 106.304 40.8679 107.62C40.8674 108.935 41.3887 110.196 42.3174 111.127C43.2462 112.058 44.5064 112.583 45.8214 112.586" fill="#008B8B"/>
        <path d="M32.9125 137.229H16.15C15.9606 137.229 15.7789 137.153 15.6449 137.019C15.511 136.885 15.4357 136.704 15.4357 136.514C15.4357 136.325 15.511 136.143 15.6449 136.009C15.7789 135.875 15.9606 135.8 16.15 135.8H32.9125C33.1019 135.8 33.2836 135.875 33.4176 136.009C33.5515 136.143 33.6268 136.325 33.6268 136.514C33.6268 136.704 33.5515 136.885 33.4176 137.019C33.2836 137.153 33.1019 137.229 32.9125 137.229ZM19.8054 68.0625H5.09107C4.90163 68.0625 4.71995 67.9872 4.58599 67.8532C4.45204 67.7193 4.37679 67.5376 4.37679 67.3482C4.37679 67.1587 4.45204 66.977 4.58599 66.8431C4.71995 66.7091 4.90163 66.6339 5.09107 66.6339H19.8054C19.9948 66.6339 20.1765 66.7091 20.3104 66.8431C20.4444 66.977 20.5196 67.1587 20.5196 67.3482C20.5196 67.5376 20.4444 67.7193 20.3104 67.8532C20.1765 67.9872 19.9948 68.0625 19.8054 68.0625ZM201.146 28.4125H192.961C192.771 28.4125 192.59 28.3372 192.456 28.2032C192.322 28.0693 192.246 27.8876 192.246 27.6982C192.246 27.5087 192.322 27.3271 192.456 27.1931C192.59 27.0591 192.771 26.9839 192.961 26.9839H201.146C201.336 26.9839 201.518 27.0591 201.652 27.1931C201.785 27.3271 201.861 27.5087 201.861 27.6982C201.861 27.8876 201.785 28.0693 201.652 28.2032C201.518 28.3372 201.336 28.4125 201.146 28.4125ZM243.193 100.129H224.316C224.127 100.129 223.945 100.053 223.811 99.9193C223.677 99.7854 223.602 99.6037 223.602 99.4142C223.602 99.2248 223.677 99.0431 223.811 98.9092C223.945 98.7752 224.127 98.7 224.316 98.7H243.193C243.382 98.7 243.564 98.7752 243.698 98.9092C243.832 99.0431 243.907 99.2248 243.907 99.4142C243.907 99.6037 243.832 99.7854 243.698 99.9193C243.564 100.053 243.382 100.129 243.193 100.129ZM242.777 171.343H223.088C222.898 171.343 222.716 171.268 222.582 171.134C222.448 171 222.373 170.818 222.373 170.629C222.373 170.439 222.448 170.257 222.582 170.123C222.716 169.99 222.898 169.914 223.088 169.914H242.777C242.966 169.914 243.148 169.99 243.282 170.123C243.416 170.257 243.491 170.439 243.491 170.629C243.491 170.818 243.416 171 243.282 171.134C243.148 171.268 242.966 171.343 242.777 171.343Z" fill="#008B8B"/>
        <path d="M126.659 121.707V138.396H185.075C186.514 138.395 187.716 139.493 187.845 140.925L187.855 141.177V160.641H182.291V143.966H126.659V160.657H121.095V143.966H65.4625V160.654H59.9054V141.189C59.9018 139.659 61.1375 138.414 62.6679 138.407H121.098V121.72H126.661L126.659 121.707Z" fill="white"/>
        <path d="M83.3484 26.6004C82.7808 26.5805 82.217 26.7002 81.7064 26.9491C81.1959 27.198 80.7543 27.5684 80.4203 28.0278L74.7431 36.0419L67.0085 33.1695C66.4088 32.947 65.7591 32.8957 65.1319 33.0213C64.5047 33.147 63.9249 33.4446 63.4572 33.8809L56.3392 40.5539C55.8718 40.9936 55.5365 41.555 55.371 42.1749C55.2055 42.7948 55.2163 43.4486 55.4022 44.0627L57.7933 51.9486L49.4664 57.1014C48.9875 57.4024 48.59 57.8166 48.3091 58.3076C48.0281 58.7985 47.8723 59.351 47.8554 59.9164L47.4134 73.6952C47.3961 74.2634 47.5197 74.827 47.773 75.3359C48.0263 75.8448 48.4015 76.2831 48.8653 76.6119L56.8209 82.2551L53.9746 89.9886C53.7492 90.5879 53.6974 91.2385 53.8252 91.8659C53.9531 92.4932 54.2553 93.0717 54.6972 93.535L61.3622 100.626C62.2572 101.576 63.6119 101.938 64.8605 101.56L72.7454 99.2048L77.9099 107.5C78.2085 107.979 78.6201 108.377 79.1087 108.66C79.5973 108.943 80.1479 109.101 80.712 109.121L94.4752 109.596C95.042 109.615 95.6046 109.494 96.1139 109.245C96.6232 108.996 97.0637 108.626 97.3967 108.167L103.072 100.195L110.806 103.067C111.406 103.29 112.057 103.342 112.684 103.216C113.312 103.09 113.892 102.792 114.36 102.356L121.458 95.6982C121.924 95.2604 122.259 94.7016 122.426 94.0843C122.592 93.467 122.584 92.8155 122.402 92.2026L120.044 84.3167L128.34 79.1816C128.822 78.8822 129.224 78.4682 129.508 77.9763C129.792 77.4844 129.95 76.93 129.968 76.3622L130.41 62.5745C130.427 62.0099 130.306 61.4496 130.057 60.9425C129.808 60.4354 129.44 59.9966 128.983 59.6645L120.981 54.0035L123.854 46.27C124.079 45.6682 124.131 45.0153 124.005 44.3851C123.879 43.7549 123.579 43.1726 123.14 42.7038L116.472 35.6199C115.58 34.6698 114.227 34.3096 112.979 34.6852L105.074 37.0406L99.9116 28.7127C99.6131 28.233 99.2012 27.8339 98.7121 27.5507C98.2231 27.2675 97.672 27.1089 97.1072 27.0887L83.3462 26.6137L83.3484 26.6004ZM89.5737 47.4566C95.0476 47.632 100.228 49.973 103.976 53.9654C107.725 57.9578 109.735 63.2747 109.564 68.748C109.39 74.2211 107.049 79.4009 103.056 83.1493C99.0636 86.8976 93.7461 88.9077 88.2721 88.738C82.7982 88.5638 77.6174 86.2238 73.8681 82.2323C70.1189 78.2408 68.1079 72.9243 68.277 67.451C68.4494 61.9757 70.7896 56.792 74.7829 53.0424C78.7762 49.2927 84.0976 47.282 89.5737 47.4566Z" fill="#008B8B"/>
        <path d="M56.9908 183.695L57.7051 181.586C57.9176 180.261 59.0158 179.259 60.3533 179.166C62.6187 178.893 64.9122 178.957 67.1587 179.357C68.4801 179.522 69.498 180.604 69.5766 181.934C69.648 182.88 69.9424 183.795 70.4358 184.604C70.9291 185.414 71.6073 186.095 72.4147 186.592C73.2221 187.089 74.1358 187.387 75.0808 187.463C76.0259 187.539 76.9754 187.389 77.8516 187.027C78.4511 186.764 79.1246 186.721 79.7523 186.908C80.3801 187.094 80.9214 187.497 81.2801 188.045C82.782 190.05 83.9461 192.287 84.7266 194.668C85.1748 195.936 84.6623 197.343 83.5033 198.025C82.7204 198.565 82.0756 199.281 81.621 200.116C81.1665 200.951 80.9152 201.882 80.8873 202.832C80.8551 204.234 81.3248 205.6 82.2087 206.688C82.5408 207.073 82.9016 207.432 83.2908 207.759C83.7495 208.161 84.0674 208.699 84.1982 209.295C84.329 209.891 84.2657 210.513 84.0176 211.07C82.9978 213.431 81.5781 215.599 79.8212 217.477C79.4002 217.975 78.8225 218.314 78.183 218.441C77.5435 218.567 76.8801 218.472 76.3016 218.172C75.5401 217.806 74.7115 217.602 73.8675 217.571C73.0235 217.54 72.1822 217.684 71.3962 217.993C70.481 218.378 69.6741 218.981 69.0461 219.75C68.4182 220.519 67.9884 221.43 67.7944 222.404C67.5712 223.711 66.4712 224.69 65.1462 224.757C62.8757 224.983 60.5841 224.863 58.3498 224.4C57.6938 224.32 57.0863 224.014 56.6319 223.534C56.1775 223.054 55.9047 222.431 55.8605 221.772C55.6474 220.147 54.7975 218.673 53.498 217.675C52.3212 216.79 50.8551 216.379 49.3908 216.523C48.8851 216.584 48.386 216.691 47.8998 216.843C47.3204 217.038 46.6936 217.041 46.1126 216.851C45.5316 216.661 45.0273 216.289 44.6748 215.79C43.1417 213.767 41.9608 211.501 41.1819 209.086C40.963 208.506 40.941 207.87 41.1195 207.277C41.298 206.683 41.667 206.165 42.1694 205.802C43.6194 204.723 44.5033 203.045 44.573 201.24C44.6426 199.434 43.8891 197.693 42.5266 196.506C42.0362 196.101 41.697 195.542 41.5637 194.921C41.4305 194.299 41.5112 193.651 41.7926 193.081C42.7703 190.649 44.2017 188.425 46.0105 186.529C46.4277 186.083 46.9769 185.782 47.5775 185.671C48.1782 185.559 48.7987 185.644 49.348 185.911C50.1395 186.272 50.9994 186.459 51.8694 186.459C52.7395 186.459 53.5994 186.272 54.3908 185.911C55.443 185.427 56.3413 184.662 56.9873 183.7M69.4248 206.022C71.6908 202.457 70.6426 197.732 67.0801 195.461C63.5176 193.19 58.7908 194.234 56.5176 197.793C55.7085 199.069 55.295 200.556 55.3289 202.067C55.3629 203.578 55.8429 205.045 56.7085 206.283C57.5741 207.522 58.7867 208.477 60.1937 209.028C61.6007 209.579 63.1393 209.702 64.6158 209.381C65.5992 209.163 66.5298 208.753 67.3541 208.174C68.1785 207.596 68.8804 206.86 69.4194 206.009M172.652 216.225L170.469 216.659C169.214 217.136 167.796 216.684 167.05 215.568C165.682 213.742 164.594 211.722 163.821 209.575C163.571 208.98 163.537 208.317 163.724 207.699C163.912 207.081 164.309 206.549 164.848 206.193C165.632 205.66 166.278 204.948 166.733 204.116C167.189 203.285 167.441 202.357 167.469 201.41C167.497 200.462 167.3 199.521 166.894 198.665C166.488 197.808 165.885 197.059 165.134 196.481C164.607 196.092 164.235 195.53 164.084 194.894C163.933 194.257 164.012 193.588 164.307 193.004C165.296 190.702 166.654 188.577 168.328 186.713C168.752 186.217 169.335 185.884 169.978 185.772C170.62 185.66 171.281 185.776 171.848 186.098C172.706 186.508 173.648 186.709 174.598 186.686C175.549 186.664 176.48 186.418 177.318 185.968C178.547 185.296 179.497 184.208 179.996 182.898C180.165 182.419 180.295 181.927 180.387 181.427C180.507 180.83 180.814 180.287 181.263 179.877C181.713 179.467 182.282 179.211 182.887 179.147C185.443 178.854 188.028 179.004 190.532 179.588C191.173 179.705 191.756 180.036 192.184 180.527C192.612 181.018 192.861 181.64 192.889 182.291C193.016 183.995 193.844 185.568 195.177 186.636C195.967 187.237 196.892 187.635 197.872 187.795C198.852 187.956 199.856 187.873 200.796 187.556C201.401 187.333 202.063 187.323 202.674 187.527C203.285 187.731 203.809 188.136 204.159 188.677C205.488 190.533 206.527 192.58 207.241 194.748C207.498 195.357 207.536 196.036 207.346 196.669C207.157 197.302 206.753 197.849 206.203 198.216C204.902 199.211 204.05 200.682 203.834 202.307C203.653 203.769 204.028 205.245 204.884 206.443C205.189 206.851 205.531 207.23 205.905 207.575C206.846 208.406 207.128 209.757 206.598 210.895C205.61 213.233 204.235 215.387 202.53 217.266C202.137 217.745 201.597 218.08 200.993 218.221C200.39 218.362 199.757 218.301 199.193 218.047C197.534 217.329 195.639 217.398 194.039 218.24C193.249 218.655 192.562 219.241 192.028 219.956C191.494 220.671 191.127 221.496 190.953 222.372C190.848 222.999 190.533 223.572 190.06 223.998C189.587 224.424 188.985 224.678 188.35 224.718C185.755 225.082 183.115 224.95 180.569 224.329C179.974 224.19 179.439 223.864 179.043 223.399C178.647 222.934 178.41 222.354 178.368 221.745C178.286 220.879 178.019 220.04 177.585 219.286C177.151 218.531 176.56 217.879 175.852 217.373C174.906 216.702 173.794 216.305 172.637 216.227M185.777 194.315C181.557 194.136 177.991 197.409 177.807 201.627C177.72 203.653 178.44 205.631 179.809 207.127C181.178 208.623 183.085 209.515 185.11 209.607C189.33 209.798 192.905 206.534 193.1 202.315C193.145 201.308 192.992 200.303 192.649 199.356C192.305 198.409 191.778 197.539 191.098 196.796C190.418 196.053 189.598 195.451 188.685 195.026C187.773 194.6 186.785 194.358 185.778 194.315M110.344 189.67L109.952 187.477C109.503 186.215 109.982 184.809 111.109 184.084C112.962 182.753 115.003 181.704 117.164 180.972C118.402 180.477 119.816 180.938 120.527 182.066C121.045 182.86 121.744 183.52 122.566 183.991C123.388 184.463 124.31 184.733 125.257 184.779C126.204 184.825 127.148 184.647 128.013 184.258C128.877 183.869 129.637 183.281 130.23 182.541C130.629 182.022 131.199 181.661 131.838 181.522C132.478 181.383 133.147 181.475 133.725 181.782C136.007 182.816 138.104 184.216 139.935 185.925C140.935 186.823 141.16 188.304 140.471 189.457C140.046 190.307 139.826 191.246 139.83 192.196C139.835 193.147 140.063 194.083 140.496 194.929C141.145 196.175 142.217 197.148 143.519 197.673C143.996 197.851 144.485 197.991 144.984 198.091C145.579 198.223 146.117 198.542 146.518 199.001C146.919 199.46 147.163 200.035 147.214 200.643C147.457 203.202 147.257 205.786 146.623 208.277C146.494 208.916 146.151 209.492 145.651 209.91C145.152 210.329 144.525 210.565 143.873 210.581C143.029 210.626 142.204 210.846 141.45 211.225C140.695 211.604 140.026 212.135 139.485 212.784C138.869 213.562 138.453 214.48 138.273 215.456C138.093 216.432 138.156 217.438 138.455 218.384C138.665 218.993 138.662 219.655 138.446 220.262C138.231 220.869 137.815 221.384 137.268 221.723C135.388 223.016 133.323 224.016 131.143 224.688C130.529 224.933 129.85 224.957 129.22 224.755C128.591 224.554 128.052 224.139 127.696 223.582C126.725 222.264 125.272 221.383 123.653 221.132C122.195 220.924 120.712 221.271 119.498 222.104C119.084 222.4 118.698 222.733 118.344 223.1C117.93 223.55 117.382 223.854 116.782 223.967C116.181 224.081 115.56 223.997 115.01 223.729C112.693 222.695 110.566 221.278 108.719 219.538C107.753 218.707 107.46 217.336 108.005 216.184C108.757 214.54 108.723 212.645 107.914 211.027C107.515 210.229 106.943 209.53 106.238 208.982C105.533 208.435 104.715 208.052 103.843 207.863C103.218 207.744 102.652 207.418 102.235 206.938C101.819 206.457 101.578 205.85 101.55 205.215C101.234 202.614 101.416 199.976 102.085 197.443C102.237 196.852 102.574 196.326 103.047 195.94C103.519 195.554 104.103 195.33 104.712 195.3C106.468 195.168 108.08 194.281 109.132 192.87C109.82 191.939 110.238 190.836 110.341 189.682M131.991 203.245C132.257 199.029 129.057 195.395 124.841 195.125C122.817 194.997 120.824 195.678 119.301 197.017C117.777 198.356 116.847 200.244 116.714 202.268C116.439 206.484 119.634 210.123 123.85 210.4C124.854 210.465 125.862 210.332 126.815 210.008C127.767 209.683 128.647 209.174 129.403 208.51C130.159 207.845 130.777 207.038 131.221 206.135C131.665 205.231 131.927 204.249 131.991 203.245Z" fill="#008B8B"/>
        <path d="M201.927 64.1993C202.308 64.5364 202.593 64.9673 202.756 65.4492C202.918 65.9311 202.951 66.447 202.852 66.9457L201.529 73.685C201.33 74.6993 201.684 75.7439 202.457 76.4296L207.713 81.0957C208.482 81.7796 208.834 82.8172 208.641 83.8279L207.372 90.4475C207.172 91.4921 206.42 92.3457 205.407 92.6761L198.979 94.7547C197.972 95.0814 197.22 95.9296 197.014 96.9689L195.711 103.603C195.609 104.116 195.372 104.592 195.023 104.983C194.675 105.373 194.229 105.663 193.731 105.823L187.293 107.873C186.816 108.025 186.307 108.052 185.816 107.95C185.325 107.849 184.869 107.622 184.491 107.292L179.161 102.649C178.391 101.98 177.329 101.762 176.357 102.071L169.836 104.13C168.854 104.442 167.78 104.215 167.011 103.53L161.766 98.8707C160.991 98.185 160.638 97.1404 160.838 96.1243L162.161 89.385C162.363 88.3689 162.011 87.3243 161.236 86.6368L155.981 81.9725C155.602 81.6357 155.318 81.2066 155.155 80.7271C154.993 80.2476 154.957 79.7342 155.052 79.2368L156.323 72.61C156.525 71.5671 157.277 70.7154 158.288 70.3868L164.793 68.2439C165.288 68.0818 165.73 67.7898 166.074 67.3984C166.417 67.007 166.65 66.5307 166.747 66.0189L168.005 59.4564C168.205 58.4118 168.959 57.5582 169.97 57.2296L176.434 55.1421C177.427 54.8207 178.516 55.0529 179.291 55.7529L184.47 60.4368C185.245 61.1368 186.334 61.3707 187.327 61.0475L193.847 58.9421C194.832 58.6225 195.913 58.8493 196.686 59.5386L201.927 64.1993ZM188.634 73.8868C185.573 71.0832 181.122 70.4082 177.366 72.1779C173.611 73.9475 171.298 77.8118 171.513 81.9564C171.727 86.1011 174.425 89.7064 178.343 91.0796C182.261 92.4529 186.618 91.3225 189.375 88.2172C193.127 84.0547 192.795 77.6404 188.634 73.8868Z" fill="#008B8B"/>
    </g>
    <defs>
        <clipPath id="clip0_343_235">
            <rect width="250" height="250" fill="white"/>
        </clipPath>
    </defs>
</svg>
