<svg width="65" height="64" viewBox="0 0 65 64" fill="none" xmlns="http://www.w3.org/2000/svg">
    <path opacity="0.8" fill-rule="evenodd" clip-rule="evenodd" d="M21.6998 24.4037H2.95233V27.3447H20.096C20.5036 26.3374 21.168 25.1931 21.6998 24.4037ZM19.8163 30.2872H2.95233V33.2296H20.7352C20.3146 32.4266 19.9733 31.475 19.8163 30.2872ZM27.3721 18.5195H2.95233V21.4612H24.4304L27.3721 18.5195Z" fill="#36B68A"/>
    <path d="M51.4948 14.9898C54.5821 14.9898 57.0849 12.487 57.0849 9.39967C57.0849 6.31234 54.5821 3.80957 51.4948 3.80957C48.4075 3.80957 45.9047 6.31234 45.9047 9.39967C45.9047 12.487 48.4075 14.9898 51.4948 14.9898Z" stroke="#373A43" stroke-width="2"/>
    <path d="M17.9557 15.2839L17.2365 15.5353C17.3015 15.7211 17.4359 15.8744 17.6114 15.9633C17.7869 16.0522 17.99 16.0698 18.1782 16.0123L17.9557 15.2839ZM15.8963 9.39971L15.6624 8.67438C15.5657 8.70557 15.4762 8.7558 15.3991 8.82211C15.3221 8.88842 15.2591 8.96947 15.2139 9.06049C15.1687 9.15151 15.1421 9.25066 15.1358 9.35209C15.1295 9.45353 15.1435 9.55521 15.1771 9.65114L15.8963 9.39971ZM27.3706 5.86905L27.1855 5.13L27.3706 5.86905ZM62.3801 26.1692H63.142C63.142 25.9672 63.0618 25.7734 62.9189 25.6305C62.776 25.4876 62.5822 25.4073 62.3801 25.4073V26.1692ZM62.3801 32.0534V32.8153C62.5822 32.8153 62.776 32.7351 62.9189 32.5922C63.0618 32.4493 63.142 32.2555 63.142 32.0534H62.3801ZM43.2571 23.8157L42.7999 23.2062L43.2571 23.8157ZM35.6076 29.994L35.1283 29.402C34.999 29.5068 34.9075 29.651 34.8679 29.8127C34.8282 29.9743 34.8427 30.1445 34.9089 30.2972L35.6083 29.994H35.6076ZM39.7272 38.5258L39.0034 38.7666L39.7272 38.5258ZM14.4258 46.4687H13.6639C13.6639 46.6707 13.7442 46.8645 13.8871 47.0074C14.03 47.1503 14.2238 47.2306 14.4258 47.2306V46.4687ZM14.4258 40.5852V39.8233C14.2238 39.8233 14.03 39.9036 13.8871 40.0465C13.7442 40.1894 13.6639 40.3832 13.6639 40.5852H14.4258ZM34.1363 40.5852V41.3471C34.2761 41.3473 34.4133 41.3089 34.5327 41.2364C34.6522 41.1638 34.7494 41.0597 34.8137 40.9355C34.8779 40.8114 34.9068 40.672 34.8971 40.5325C34.8875 40.393 34.8396 40.2589 34.7588 40.1449L34.1371 40.5852H34.1363ZM27.3714 32.0534L26.8837 32.6386L27.3714 32.0534ZM36.4914 15.8721L36.9866 16.4511C37.0722 16.3779 37.1406 16.2865 37.1866 16.1837C37.2327 16.0809 37.2554 15.9691 37.2531 15.8564C37.2507 15.7438 37.2234 15.633 37.1731 15.5322C37.1228 15.4313 37.0508 15.3429 36.9622 15.2732L36.4914 15.8721ZM28.5478 12.0473L28.7702 12.7765C28.7908 12.7702 28.8111 12.763 28.8312 12.7551L28.5478 12.0473ZM25.9001 49.1171V48.3551C25.6981 48.3552 25.5043 48.4355 25.3615 48.5784L25.9001 49.1171ZM33.5497 49.1171L34.1157 49.6268C34.2145 49.5173 34.2794 49.3816 34.3026 49.236C34.3257 49.0904 34.3062 48.9413 34.2463 48.8066C34.1863 48.6719 34.0886 48.5575 33.965 48.4772C33.8413 48.397 33.6971 48.3543 33.5497 48.3544V49.1163V49.1171ZM22.9577 60.8839L22.4944 61.4896C22.6465 61.6061 22.8369 61.6609 23.0277 61.6433C23.2185 61.6256 23.3956 61.5368 23.5237 61.3944L22.9584 60.8847L22.9577 60.8839ZM17.9557 57.0591L17.4171 56.5205C17.3403 56.5973 17.2808 56.6896 17.2425 56.7912C17.2043 56.8929 17.1883 57.0016 17.1955 57.11C17.2027 57.2183 17.233 57.3239 17.2844 57.4196C17.3357 57.5153 17.407 57.5989 17.4933 57.6649L17.9557 57.0591ZM18.675 15.031L16.6156 9.14752L15.1771 9.65038L17.2365 15.5346L18.675 15.0317V15.031ZM16.1302 10.1243C19.1847 9.13914 25.7036 7.07057 27.555 6.6081L27.1855 5.13C25.2716 5.60771 18.6887 7.69762 15.6624 8.67362L16.1302 10.1243ZM27.555 6.6081C29.8841 6.02524 31.8902 5.82867 33.6411 7.32962L34.6331 6.17305C32.2651 4.14333 29.5641 4.53495 27.1855 5.12924L27.555 6.60733V6.6081ZM33.6411 7.32962C34.7032 8.2401 38.0578 10.6249 41.1938 12.8854C42.6436 13.9243 44.0824 14.9783 45.51 16.0473C46.0138 16.4246 46.5099 16.8119 46.998 17.2092C47.1885 17.367 47.3432 17.5003 47.4598 17.6085C47.5242 17.6682 47.5862 17.7305 47.6457 17.7951C47.6469 17.7966 47.6482 17.7982 47.6495 17.7997L48.8685 16.8854C48.6933 16.6523 48.3474 16.3468 47.9679 16.0344C47.4631 15.623 46.95 15.2219 46.4289 14.8313C44.9919 13.7556 43.5437 12.695 42.0845 11.6496C38.8944 9.34943 35.6304 7.02791 34.6331 6.17305L33.6411 7.32962ZM47.6487 17.7997C48.4792 18.9075 49.2617 20.5136 49.2617 22.0496H50.7855C50.7855 20.0557 49.8026 18.1311 48.8677 16.8854L47.6487 17.7997ZM49.2617 22.0496C49.2617 22.9525 49.334 24.0923 49.6754 25.0317C49.8483 25.5064 50.1074 25.9795 50.5074 26.3391C50.9234 26.714 51.4544 26.9304 52.083 26.9304V25.4066C51.8293 25.4066 51.6617 25.3289 51.5268 25.207C51.3744 25.0698 51.2297 24.845 51.1077 24.5106C50.8609 23.8317 50.7855 22.9121 50.7855 22.0496H49.2617ZM52.083 26.9304H62.3809V25.4066H52.083V26.9304ZM61.6182 26.1685V32.0527H63.142V26.1685H61.6182ZM62.3801 31.2908H52.966V32.8146H62.3801V31.2908ZM52.966 31.2908C51.6403 31.2908 50.2879 30.89 49.1596 30.3087C48.0121 29.7182 47.1931 28.9913 46.8525 28.4245L45.5458 29.2085C46.0883 30.1121 47.1809 31.0035 48.4617 31.6633C49.7592 32.3323 51.3493 32.8138 52.966 32.8138V31.29V31.2908ZM46.8525 28.4245C46.4639 27.7769 46.1188 26.826 45.8681 25.8965C45.6159 24.9578 45.4902 24.1532 45.4902 23.815H43.9664C43.9664 24.359 44.1348 25.3197 44.3969 26.2927C44.662 27.2763 45.0521 28.3841 45.5458 29.2085L46.8525 28.4237V28.4245ZM45.4902 23.815C45.4902 23.5833 45.475 23.2854 45.3668 23.0256C45.2943 22.8374 45.1662 22.6758 44.9994 22.5623C44.8326 22.4489 44.6352 22.3891 44.4335 22.391C44.1097 22.391 43.8125 22.5388 43.6053 22.6569C43.3706 22.791 43.1009 22.9799 42.7999 23.2054L43.7142 24.4245C44.0022 24.2089 44.2102 24.0664 44.3618 23.9795C44.4072 23.9523 44.4546 23.9287 44.5036 23.9087C44.5295 23.8995 44.4998 23.9148 44.4342 23.9148C44.3349 23.9132 44.2379 23.8841 44.1542 23.8305C44.0705 23.7769 44.0033 23.7011 43.9603 23.6115C43.9474 23.581 43.9519 23.5757 43.9573 23.6191C43.9643 23.6842 43.9674 23.7496 43.9664 23.815H45.4902ZM42.8007 23.2054C41.8437 23.9224 37.171 27.7471 35.1283 29.4012L36.0876 30.5852C38.1637 28.9045 42.7878 25.1193 43.7142 24.4245L42.7999 23.2054H42.8007ZM34.9089 30.2972C35.4117 31.4508 36.3375 33.2588 37.1794 34.9197C38.0434 36.6264 38.7916 38.1273 39.0041 38.7658L40.4495 38.2835C40.1912 37.5094 39.3706 35.8736 38.5386 34.231C37.683 32.5426 36.7862 30.7902 36.3062 29.6892L34.9089 30.2965V30.2972ZM39.0041 38.7658C39.411 39.9871 39.1801 41.7502 38.3611 43.2306C37.5489 44.701 36.2681 45.7068 34.7253 45.7068V47.2306C37.0079 47.2306 38.7177 45.7357 39.6952 43.9689C40.6658 42.2134 41.0232 40.0047 40.4495 38.2835L39.0041 38.7658ZM34.7253 45.7068H14.4266V47.2306H34.7253V45.7068ZM15.1877 46.4687V40.5845H13.6639V46.4679H15.1877V46.4687ZM14.4258 41.3464H34.1363V39.8226H14.4266V41.3464H14.4258ZM34.7588 40.1441C33.6236 38.5441 32.4576 36.9662 31.2617 35.4111C29.9702 33.7403 28.6422 32.1197 27.8582 31.4668L26.883 32.6378C27.5108 33.1612 28.7321 34.6302 30.0548 36.343C31.2382 37.8813 32.392 39.4422 33.5154 41.0249L34.7588 40.1441ZM27.8582 31.4668C27.5535 31.2138 27.2662 30.7757 27.0399 30.1746C26.8167 29.5826 26.6735 28.8839 26.6224 28.1738C26.5721 27.4622 26.6156 26.7666 26.7481 26.1799C26.8837 25.5803 27.0956 25.1673 27.3211 24.9418L26.243 23.8645C25.7325 24.375 25.43 25.1018 25.2617 25.8439C25.091 26.6005 25.043 27.4485 25.1024 28.282C25.1618 29.1163 25.331 29.962 25.6137 30.7125C25.8933 31.4538 26.3039 32.1555 26.8822 32.6378L27.8575 31.4668H27.8582ZM27.3203 24.9418C28.4708 23.7913 34.2247 18.8176 36.9866 16.4496L35.9946 15.293C33.2647 17.6321 27.4468 22.6607 26.243 23.8645L27.3203 24.9418ZM36.9615 15.2725C36.2704 14.7292 35.1756 13.8858 34.1333 13.1178C33.1169 12.3689 32.0777 11.6367 31.5352 11.3654L30.854 12.7285C31.2533 12.9281 32.1759 13.5681 33.2289 14.3445C34.2559 15.101 35.3378 15.9346 36.0197 16.4702L36.9615 15.2725ZM31.5359 11.3654C30.8997 11.0477 30.2102 10.9967 29.6479 11.037C29.1744 11.0693 28.7081 11.1712 28.2643 11.3395L28.8304 12.7544C29.1279 12.6445 29.4397 12.5778 29.7561 12.5563C30.1599 12.5281 30.5485 12.5753 30.854 12.7285L31.5359 11.3647V11.3654ZM28.3245 11.3182L17.7333 14.5555L18.179 16.0123L28.7695 12.7765L28.3245 11.319V11.3182ZM25.8994 49.8782H33.5489V48.3544H25.8994V49.8782ZM32.982 48.6058L22.3916 60.3742L23.5237 61.3944L34.1142 49.6268L32.982 48.6073V48.6058ZM23.4201 60.2789L18.419 56.4542L17.4933 57.6649L22.4944 61.4896L23.4201 60.2789ZM18.4952 57.5993L26.4388 49.6557L25.3615 48.5784L17.4178 56.5212L18.4952 57.6001V57.5993Z" fill="#373A43"/>
</svg>
