<svg width="65" height="64" viewBox="0 0 65 64" fill="none" xmlns="http://www.w3.org/2000/svg">
    <path d="M32.3333 60.9524C48.3233 60.9524 61.2857 47.9899 61.2857 32C61.2857 16.01 48.3233 3.04761 32.3333 3.04761C16.3434 3.04761 3.38095 16.01 3.38095 32C3.38095 47.9899 16.3434 60.9524 32.3333 60.9524Z" stroke="#111111" stroke-width="2"/>
    <path d="M32.3318 3.02856C23.1615 7.82095 16.7318 18.9882 16.7318 32C16.7318 45.011 23.1623 56.1783 32.3318 60.9714V59.2663C24.0933 54.5752 18.2175 44.2781 18.2175 32C18.2175 19.7211 24.0933 9.42323 32.3318 4.73295V3.02856Z" fill="#111111"/>
    <path d="M32.3318 3.02856C41.5029 7.82095 48.6747 18.9882 48.6747 32C48.6747 45.011 41.5029 56.1783 32.3318 60.9714V59.2663C40.571 54.576 47.1889 44.2781 47.1889 32C47.1889 19.7211 40.571 9.42323 32.3318 4.73295V3.02856Z" fill="#111111"/>
    <path d="M10.792 13.4286C16.3691 17.5201 24.2366 20.4854 32.3348 20.4854C40.2129 20.4854 48.3569 17.6953 53.8777 13.7997C53.8777 13.4286 53.6484 13.0469 53.3063 12.6858C48.0918 16.3307 39.9059 18.9997 32.3348 18.9997C24.5482 18.9997 16.9154 16.1441 11.6469 12.314C11.2994 12.6705 11.1196 13.053 10.792 13.4286ZM11.1623 50.9433C16.7394 46.8519 24.6068 44.0069 32.7051 44.0069C40.5832 44.0069 47.9836 46.6766 53.5044 50.5722C54.0301 50.9433 53.1028 51.3242 52.7608 51.6861C47.5463 48.0412 40.2769 45.4919 32.7051 45.4919C24.9185 45.4919 17.544 48.2271 12.2754 52.058C11.2621 52.7947 10.3059 51.5711 11.163 50.9433H11.1623Z" fill="#111111"/>
    <path fill-rule="evenodd" clip-rule="evenodd" d="M60.5634 32.7428H3.36342V31.2571H60.5634V32.7428Z" fill="#111111"/>
    <path fill-rule="evenodd" clip-rule="evenodd" d="M31.592 60.9715V3.77148H33.0777V60.9715H31.592Z" fill="#111111"/>
    <path d="M44.219 51.8096C50.4385 48.6553 55.0343 42.7605 56.4164 35.7144H57.9288C56.4811 43.5948 51.2651 50.1563 44.219 53.4629V51.8096ZM22.6762 9.46143C15.0297 12.7414 9.38857 19.7989 8.0979 28.2858H9.60266C10.8438 20.6309 15.8579 14.2416 22.6762 11.0881V9.46143Z" fill="#008B8B"/>
</svg>
