<svg width="75" height="74" viewBox="0 0 75 74" fill="none" xmlns="http://www.w3.org/2000/svg">
    <g clip-path="url(#clip0_343_325)">
        <path d="M6.43333 55.14C3.23333 49.779 1.33333 43.523 1.33333 36.77C1.33333 17.006 17.4333 1.01699 37.3333 1.01699C47.8333 1.01699 57.2333 5.48599 63.8333 12.537M68.1333 18.297C71.4333 23.66 73.3333 30.015 73.3333 36.769C73.3333 56.53 57.2333 72.52 37.3333 72.52C26.8333 72.52 17.3333 68.051 10.8333 60.901M63.8333 12.537V0.718994M10.8333 60.802V72.719M63.8333 12.537H51.9333H63.8333ZM10.8333 60.802H22.7333H10.8333V60.802Z" stroke="#212121" stroke-width="2"/>
        <path d="M28.0353 31.176H29.8683C30.1375 30.0586 30.7119 29.038 31.5273 28.228L37.0273 22.332L38.5123 20.251V14.528H39.9083C41.9173 14.528 43.5753 16.176 43.5753 18.257V22.419L42.1793 26.32C42.8773 28.141 42.9643 30.309 42.3533 32.476C40.9563 37.332 36.4163 40.366 32.1383 39.153M47.4173 49.991H36.2413C35.2049 49.9934 34.1824 49.7513 33.2572 49.2842C32.3319 48.8171 31.5299 48.1384 30.9163 47.303H27.9473M57.8063 29.095C57.8063 30.742 56.4963 32.043 54.8383 32.043H46.4563C44.7973 32.043 43.4883 30.743 43.4883 29.095C43.4883 27.448 44.7983 26.147 46.4563 26.147H54.8383C56.4973 26.147 57.8063 27.447 57.8063 29.095ZM56.2333 35.078C56.2333 36.725 54.9233 38.026 53.2653 38.026H44.8833C43.2253 38.026 41.9153 36.725 41.9153 35.078C41.9153 33.43 43.2253 32.13 44.8833 32.13H53.2653C54.9243 32.13 56.2333 33.43 56.2333 35.078V35.078ZM55.4493 41.06C55.4493 42.708 54.1393 44.008 52.4813 44.008H44.0993C42.4413 44.008 41.1313 42.708 41.1313 41.06C41.1313 39.413 42.4413 38.112 44.0993 38.112H52.4813C54.1403 38.025 55.4493 39.412 55.4493 41.06Z" stroke="#36B68A" stroke-width="2"/>
        <path d="M13.0173 30.395H25.5893V53.893H18.5173V34.21M21.6613 51.292V49.557M53.0033 47.043C53.0033 48.69 51.6943 49.991 50.0353 49.991H44.0113C42.3523 49.991 41.0433 48.691 41.0433 47.043C41.0433 45.396 42.3533 44.095 44.0113 44.095H50.0353C51.6943 44.008 53.0043 45.395 53.0043 47.043H53.0033Z" stroke="#36B68A" stroke-width="2"/>
    </g>
    <defs>
        <clipPath id="clip0_343_325">
            <rect width="74" height="74" fill="white" transform="translate(0.333328)"/>
        </clipPath>
    </defs>
</svg>
