<svg width="74" height="80" viewBox="0 0 74 80" fill="none" xmlns="http://www.w3.org/2000/svg">
    <g clip-path="url(#clip0_343_257)">
        <path d="M20.108 7.33999L30.631 13.403L20.015 19.466L9.492 13.495L20.108 7.33899V7.33999Z" stroke="#36B68A" stroke-width="2" stroke-miterlimit="1" stroke-linejoin="round"/>
        <path d="M30.63 13.403L30.815 25.622L20.107 31.686L20.015 19.466L30.631 13.403H30.63Z" stroke="#36B68A" stroke-width="2" stroke-miterlimit="1" stroke-linejoin="round"/>
        <path d="M20.015 19.466L20.108 31.686L9.584 25.714L9.492 13.494L20.015 19.467V19.466ZM55.554 49.693L66.077 55.664L55.462 61.82L44.846 55.756L55.554 49.693V49.693Z" stroke="#36B68A" stroke-width="2" stroke-miterlimit="1" stroke-linejoin="round"/>
        <path d="M66.077 55.6641L66.169 67.8841L55.554 73.9471L55.461 61.8201L66.077 55.6641Z" stroke="#36B68A" stroke-width="2" stroke-miterlimit="1" stroke-linejoin="round"/>
        <path d="M55.462 61.82L55.554 73.947L45.031 67.975L44.846 55.756L55.462 61.82V61.82Z" stroke="#36B68A" stroke-width="2" stroke-miterlimit="1" stroke-linejoin="round"/>
        <path d="M35.985 6.23701C54.539 5.50201 70.046 19.834 70.785 38.3C70.8797 40.8241 70.6939 43.3509 70.231 45.834M6.354 56.215C3.954 52.173 2.477 47.671 1.923 42.71C1.64463 39.8007 1.73771 36.8678 2.2 33.982M40.692 72.293L38.754 72.569C32.015 73.212 25.554 71.926 19.923 68.986" stroke="#424242" stroke-width="2" stroke-dasharray="3 3"/>
        <path d="M27.4 41.975V51.714M32.292 46.844H22.508M52.969 18.548V29.756M58.6 24.152H47.337M37.646 19.65C37.646 29.48 29.708 37.382 19.831 37.382C9.954 37.382 1.923 29.481 1.923 19.65C1.923 9.82004 9.954 1.92004 19.74 1.92004C29.617 1.92004 37.647 9.82004 37.647 19.651L37.646 19.65ZM55.277 78.081C45.953 78.081 38.384 70.548 38.384 61.268C38.384 51.989 45.954 44.456 55.277 44.456C64.6 44.456 72.169 51.989 72.169 61.268C72.169 70.548 64.599 78.081 55.277 78.081ZM25.555 59.799C25.555 64.025 22.139 67.424 17.893 67.424C13.647 67.424 10.231 64.024 10.231 59.799C10.231 55.572 13.647 52.173 17.893 52.173C22.139 52.173 25.555 55.664 25.555 59.799V59.799Z" stroke="#424242" stroke-width="2"/>
    </g>
    <defs>
        <clipPath id="clip0_343_257">
            <rect width="74" height="80" fill="white"/>
        </clipPath>
    </defs>
</svg>
