<svg width="64" height="64" viewBox="0 0 64 64" fill="none" xmlns="http://www.w3.org/2000/svg">
    <path d="M51.8095 44.1906H59.4286V4.57153H4.57144V44.1906H12.1905M4.57144 12.9525H59.4286" stroke="#373A43" stroke-width="2"/>
    <path d="M15.2381 42.2858V28.5715C15.2381 28.5715 20.9524 28.762 24.381 27.4287C27.8095 26.0953 32 23.6191 32 23.6191C32 23.6191 36.1905 26.0953 39.6191 27.4287C43.0476 28.762 48.7619 28.5715 48.7619 28.5715V42.2858C48.7619 48.0001 46.0213 52.2188 42.2857 54.8572C38.9074 57.2435 34.653 58.2226 32 59.4287C29.3471 58.2226 25.0926 57.2435 21.7143 54.8572C17.9787 52.2188 15.2381 48.0001 15.2381 42.2858Z" stroke="#373A43" stroke-width="2"/>
    <path d="M32 47.9999C35.7871 47.9999 38.8571 44.9299 38.8571 41.1428C38.8571 37.3557 35.7871 34.2856 32 34.2856C28.2129 34.2856 25.1429 37.3557 25.1429 41.1428C25.1429 44.9299 28.2129 47.9999 32 47.9999Z" stroke="#36B68A" stroke-width="2"/>
    <path d="M29.3333 41.1429L31.2381 42.6667L34.6667 38.8572" stroke="#36B68A" stroke-width="2"/>
    <path d="M7.61905 8H9.14286V9.52381H7.61905V8ZM10.6667 8H12.1905V9.52381H10.6667V8ZM13.7143 8H15.2381V9.52381H13.7143V8Z" fill="#36B68A"/>
</svg>
