<svg width="76" height="74" viewBox="0 0 76 74" fill="none" xmlns="http://www.w3.org/2000/svg">
    <g clip-path="url(#clip0_343_362)">
        <path d="M6.96033 55.14C3.76033 49.778 1.86033 43.522 1.86033 36.769C1.86033 17.006 17.9603 1.01697 37.8603 1.01697C48.3603 1.01697 57.7603 5.48597 64.3603 12.537M68.6603 18.297C71.9603 23.66 73.8603 30.015 73.8603 36.769C73.8603 56.531 57.7603 72.52 37.8603 72.52C27.3603 72.52 17.8603 68.051 11.3603 60.901" stroke="#111111" stroke-width="2"/>
        <path d="M26.1603 48.686C32.7873 48.686 38.1603 43.35 38.1603 36.769C38.1603 30.187 32.7873 24.851 26.1603 24.851C19.5323 24.851 14.1603 30.187 14.1603 36.769C14.1603 43.35 19.5323 48.686 26.1603 48.686V48.686Z" stroke="#008B8B" stroke-width="2"/>
        <path d="M64.3593 12.537V0.718994M11.3603 60.802V72.719M64.3593 12.537H52.4593H64.3593ZM11.3603 60.802H23.2603H11.3603Z" stroke="#111111" stroke-width="2"/>
        <path d="M36.7603 42.33L42.5603 39.947L46.8603 42.032L51.4603 39.947L56.0603 41.635L63.5603 38.258V34.385L61.4603 32.002H37.1603M19.1603 36.769H22.1603" stroke="#008B8B" stroke-width="2"/>
    </g>
    <defs>
        <clipPath id="clip0_343_362">
            <rect width="75" height="74" fill="white" transform="translate(0.833328)"/>
        </clipPath>
    </defs>
</svg>
