<svg width="96" height="96" viewBox="0 0 96 96" fill="none" xmlns="http://www.w3.org/2000/svg">
<path d="M88.9087 12.4912C88.9158 10.5043 88.1665 8.58919 86.813 7.13462C85.4594 5.68005 83.6031 4.79504 81.6208 4.65926C79.6386 4.52348 77.6789 5.14711 76.1397 6.40354C74.6005 7.65997 73.597 9.45504 73.3331 11.4243H57.3431C57.2651 9.56934 56.6565 7.77567 55.5894 6.2563C54.5223 4.73692 53.0417 3.55566 51.3232 2.85274C49.6048 2.14983 47.7207 1.9548 45.8948 2.29081C44.0688 2.62681 42.3775 3.47974 41.0219 4.74832C39.6662 6.0169 38.7031 7.64786 38.2467 9.44755C37.7904 11.2473 37.8601 13.1401 38.4476 14.9014C39.035 16.6626 40.1155 18.2183 41.5608 19.3838C43.0061 20.5492 44.7555 21.2754 46.6012 21.4762V35.5387C44.2254 35.7874 42.0258 36.9072 40.427 38.6821C38.8282 40.457 37.9434 42.7612 37.9434 45.15C37.9434 47.5388 38.8282 49.843 40.427 51.6178C42.0258 53.3927 44.2254 54.5126 46.6012 54.7612V74.5237C44.4202 74.7668 42.3868 75.7446 40.8351 77.2963C39.2833 78.8481 38.3056 80.8815 38.0625 83.0625H22.005C21.7346 81.0944 20.7272 79.3023 19.1862 78.0485C17.6453 76.7947 15.6858 76.1727 13.7039 76.3082C11.7219 76.4437 9.86532 77.3266 8.50935 78.7785C7.15338 80.2303 6.39917 82.1428 6.39917 84.1293C6.39917 86.1159 7.15338 88.0284 8.50935 89.4802C9.86532 90.9321 11.7219 91.815 13.7039 91.9505C15.6858 92.086 17.6453 91.464 19.1862 90.2102C20.7272 88.9564 21.7346 87.1643 22.005 85.1962H38.0625C38.2606 87.0131 38.9683 88.737 40.104 90.1689C41.2397 91.6009 42.7571 92.6826 44.4811 93.2894C46.2051 93.8961 48.0655 94.0031 49.8477 93.598C51.6299 93.1929 53.2613 92.2922 54.5536 90.9999C55.846 89.7075 56.7466 88.0761 57.1517 86.294C57.5568 84.5118 57.4499 82.6513 56.8431 80.9273C56.2364 79.2033 55.1547 77.686 53.7227 76.5503C52.2907 75.4146 50.5669 74.7069 48.75 74.5087V54.7668C51.1258 54.5182 53.3254 53.3984 54.9242 51.6235C56.523 49.8486 57.4078 47.5444 57.4078 45.1556C57.4078 42.7668 56.523 40.4626 54.9242 38.6877C53.3254 36.9128 51.1258 35.793 48.75 35.5443V21.4818C50.8287 21.2538 52.7779 20.3595 54.3064 18.9323C55.8349 17.5052 56.8607 15.6219 57.2306 13.5637H73.3556C73.6195 15.533 74.623 17.3281 76.1622 18.5845C77.7014 19.841 79.6611 20.4646 81.6433 20.3288C83.6256 20.193 85.4819 19.308 86.8355 17.8534C88.189 16.3989 88.9383 14.4837 88.9312 12.4968L88.9087 12.4912ZM14.2706 89.8425C13.1419 89.8421 12.0386 89.507 11.1002 88.8797C10.1619 88.2523 9.4306 87.3608 8.9989 86.3178C8.5672 85.2749 8.45444 84.1274 8.67488 83.0203C8.89532 81.9133 9.43905 80.8965 10.2373 80.0985C11.0356 79.3005 12.0526 78.7571 13.1597 78.537C14.2668 78.3169 15.4143 78.4301 16.4571 78.8621C17.4999 79.2941 18.3912 80.0257 19.0182 80.9642C19.6453 81.9028 19.98 83.0062 19.98 84.135C19.978 85.6484 19.3758 87.0993 18.3054 88.1693C17.2351 89.2392 15.784 89.841 14.2706 89.8425ZM55.2544 84.135C55.2544 85.6354 54.8094 87.1021 53.9758 88.3497C53.1423 89.5972 51.9574 90.5696 50.5712 91.1438C49.185 91.7179 47.6597 91.8682 46.1881 91.5755C44.7165 91.2827 43.3648 90.5602 42.3038 89.4993C41.2429 88.4383 40.5203 87.0866 40.2276 85.615C39.9349 84.1434 40.0851 82.618 40.6593 81.2318C41.2335 79.8456 42.2059 78.6608 43.4534 77.8272C44.701 76.9936 46.1677 76.5487 47.6681 76.5487C49.6795 76.5507 51.6079 77.3506 53.0302 78.7729C54.4525 80.1951 55.2524 82.1236 55.2544 84.135ZM55.2544 45.1556C55.2547 46.6561 54.8101 48.123 53.9768 49.3708C53.1434 50.6186 51.9587 51.5912 50.5725 52.1657C49.1864 52.7402 47.661 52.8907 46.1893 52.5982C44.7175 52.3057 43.3656 51.5833 42.3045 50.5224C41.2433 49.4615 40.5206 48.1098 40.2278 46.6382C39.9349 45.1665 40.085 43.6411 40.6591 42.2548C41.2333 40.8685 42.2056 39.6835 43.4532 38.8499C44.7008 38.0162 46.1676 37.5712 47.6681 37.5712C49.6792 37.5732 51.6073 38.3728 53.0295 39.7947C54.4518 41.2166 55.2519 43.1445 55.2544 45.1556ZM47.6681 19.4512C46.1676 19.4512 44.7008 19.0062 43.4532 18.1726C42.2056 17.3389 41.2333 16.154 40.6591 14.7677C40.085 13.3814 39.9349 11.8559 40.2278 10.3843C40.5206 8.91263 41.2433 7.5609 42.3045 6.50002C43.3656 5.43913 44.7175 4.71676 46.1893 4.42426C47.661 4.13175 49.1864 4.28225 50.5725 4.85672C51.9587 5.4312 53.1434 6.40384 53.9768 7.65164C54.8101 8.89944 55.2547 10.3663 55.2544 11.8668C55.2519 13.8779 54.4518 15.8059 53.0295 17.2277C51.6073 18.6496 49.6792 19.4492 47.6681 19.4512ZM75.36 12.4912C75.3604 11.3625 75.6954 10.2592 76.3228 9.32081C76.9502 8.38247 77.8417 7.65121 78.8846 7.21951C79.9276 6.78781 81.0751 6.67505 82.1821 6.89549C83.2891 7.11593 84.3059 7.65966 85.104 8.45794C85.902 9.25623 86.4454 10.2732 86.6654 11.3803C86.8855 12.4874 86.7724 13.6349 86.3403 14.6777C85.9083 15.7205 85.1768 16.6118 84.2382 17.2388C83.2997 17.8659 82.1962 18.2006 81.0675 18.2006C79.554 18.1986 78.1032 17.5964 77.0332 16.526C75.9632 15.4557 75.3615 14.0047 75.36 12.4912Z" fill="#008B8B"/>
<path d="M42.2756 84.135C42.2738 85.2024 42.5886 86.2463 43.1803 87.1347C43.772 88.0231 44.614 88.7159 45.5996 89.1256C46.5852 89.5353 47.6703 89.6433 48.7173 89.4361C49.7644 89.2289 50.7265 88.7157 51.4818 87.9614C52.237 87.2072 52.7516 86.2459 52.9603 85.1991C53.169 84.1523 53.0624 83.0671 52.6541 82.0809C52.2458 81.0947 51.5541 80.2518 50.6666 79.6589C49.779 79.0659 48.7355 78.7496 47.6681 78.75C46.2397 78.7515 44.8701 79.3191 43.8594 80.3284C42.8486 81.3378 42.2791 82.7066 42.2756 84.135ZM50.9288 84.135C50.9288 84.7799 50.7375 85.4103 50.3793 85.9465C50.021 86.4827 49.5117 86.9006 48.9159 87.1474C48.3201 87.3942 47.6645 87.4588 47.032 87.333C46.3995 87.2072 45.8185 86.8966 45.3625 86.4406C44.9065 85.9846 44.596 85.4036 44.4702 84.7711C44.3444 84.1386 44.4089 83.483 44.6557 82.8872C44.9025 82.2914 45.3204 81.7822 45.8566 81.4239C46.3928 81.0656 47.0233 80.8744 47.6681 80.8744C48.5326 80.8754 49.3614 81.2192 49.9727 81.8305C50.5839 82.4418 50.9278 83.2705 50.9288 84.135Z" fill="black"/>
<path d="M47.6681 6.47437C46.6016 6.47474 45.5592 6.79132 44.6727 7.38408C43.7861 7.97684 43.0953 8.81916 42.6874 9.80454C42.2796 10.7899 42.173 11.8741 42.3813 12.92C42.5896 13.966 43.1033 14.9266 43.8576 15.6806C44.6118 16.4346 45.5726 16.948 46.6186 17.1559C47.6646 17.3638 48.7488 17.2569 49.734 16.8487C50.7193 16.4405 51.5613 15.7493 52.1538 14.8626C52.7462 13.9758 53.0625 12.9333 53.0625 11.8669C53.0605 10.437 52.4915 9.06624 51.4802 8.05532C50.4689 7.04441 49.098 6.47585 47.6681 6.47437ZM47.6681 15.1256C47.0231 15.1256 46.3926 14.9343 45.8564 14.576C45.3201 14.2176 44.9022 13.7083 44.6555 13.1123C44.4088 12.5164 44.3443 11.8607 44.4703 11.2282C44.5962 10.5956 44.907 10.0146 45.3631 9.55872C45.8193 9.10279 46.4005 8.79239 47.0331 8.66679C47.6657 8.54119 48.3214 8.60603 48.9172 8.8531C49.5129 9.10018 50.0221 9.5184 50.3801 10.0548C50.7382 10.5913 50.9291 11.2219 50.9287 11.8669C50.9277 12.7312 50.5838 13.5597 49.9725 14.1707C49.3612 14.7817 48.5324 15.1251 47.6681 15.1256Z" fill="black"/>
<path d="M82.7007 46.9875C79.2207 46.9875 76.4963 50.6982 76.4963 55.4363C76.4963 60.1744 79.2207 63.885 82.7007 63.885C86.1225 63.885 88.9088 60.0957 88.9088 55.4363C88.9088 50.7769 86.1225 46.9875 82.7007 46.9875ZM82.7007 61.7513C80.4919 61.7513 78.6282 58.86 78.6282 55.4363C78.6282 52.0125 80.4919 49.125 82.7007 49.125C84.9094 49.125 86.775 52.0182 86.775 55.4419C86.775 58.8657 84.9094 61.7513 82.7007 61.7513Z" fill="black"/>
<path d="M67.5319 46.9875C64.0519 46.9875 61.3256 50.6982 61.3256 55.4363C61.3256 60.1744 64.0519 63.885 67.5319 63.885C70.9537 63.885 73.74 60.0957 73.74 55.4363C73.74 50.7769 70.9537 46.9875 67.5319 46.9875ZM67.5319 61.7513C65.3231 61.7513 63.4594 58.86 63.4594 55.4363C63.4594 52.0125 65.3231 49.125 67.5319 49.125C69.7406 49.125 71.6062 52.0182 71.6062 55.4419C71.6062 58.8657 69.75 61.7513 67.5319 61.7513Z" fill="black"/>
<path d="M71.5669 69.4762C71.4269 69.4762 71.2882 69.5038 71.1589 69.5574C71.0296 69.6111 70.9121 69.6897 70.8132 69.7888C70.7142 69.8879 70.6358 70.0055 70.5824 70.1349C70.529 70.2644 70.5016 70.4031 70.5019 70.5431L70.515 85.3087C70.515 85.5917 70.6274 85.863 70.8275 86.0631C71.0276 86.2632 71.2989 86.3756 71.5819 86.3756C71.8648 86.3756 72.1362 86.2632 72.3363 86.0631C72.5364 85.863 72.6488 85.5917 72.6488 85.3087L72.6338 70.5449C72.6343 70.4046 72.607 70.2656 72.5536 70.1358C72.5002 70.006 72.4216 69.8881 72.3225 69.7888C72.2234 69.6895 72.1056 69.6107 71.9759 69.5571C71.8462 69.5034 71.7072 69.476 71.5669 69.4762Z" fill="black"/>
<path d="M63.4988 69.4762C63.2158 69.4762 62.9444 69.5886 62.7444 69.7887C62.5443 69.9888 62.4319 70.2601 62.4319 70.5431L62.4375 85.3124C62.4375 85.5954 62.5499 85.8668 62.75 86.0668C62.9501 86.2669 63.2214 86.3793 63.5044 86.3793C63.7873 86.3793 64.0587 86.2669 64.2588 86.0668C64.4589 85.8668 64.5713 85.5954 64.5713 85.3124L64.5581 70.5487C64.5591 70.4087 64.5325 70.2698 64.4798 70.1401C64.427 70.0104 64.3493 69.8924 64.2509 69.7928C64.1525 69.6931 64.0354 69.6139 63.9063 69.5596C63.7773 69.5053 63.6388 69.4769 63.4988 69.4762Z" fill="black"/>
<path d="M79.6462 69.48C79.3633 69.48 79.0919 69.5924 78.8918 69.7925C78.6918 69.9925 78.5794 70.2639 78.5794 70.5469V85.3125C78.5733 85.4562 78.5964 85.5997 78.6473 85.7343C78.6981 85.8689 78.7757 85.9918 78.8753 86.0956C78.9748 86.1995 79.0944 86.2821 79.2267 86.3385C79.3591 86.395 79.5014 86.4241 79.6453 86.4241C79.7892 86.4241 79.9316 86.395 80.0639 86.3385C80.1962 86.2821 80.3158 86.1995 80.4153 86.0956C80.5149 85.9918 80.5925 85.8689 80.6433 85.7343C80.6942 85.5997 80.7173 85.4562 80.7112 85.3125V70.5469C80.7115 70.4068 80.6841 70.2681 80.6307 70.1387C80.5773 70.0093 80.4989 69.8917 80.4 69.7926C80.3011 69.6935 80.1836 69.6149 80.0542 69.5612C79.9249 69.5076 79.7863 69.48 79.6462 69.48Z" fill="black"/>
<path d="M86.6868 69.48C86.4039 69.48 86.1325 69.5924 85.9325 69.7925C85.7324 69.9925 85.62 70.2639 85.62 70.5469V85.3125C85.6114 85.4577 85.6325 85.6031 85.6821 85.7398C85.7318 85.8765 85.8088 86.0016 85.9086 86.1074C86.0083 86.2132 86.1286 86.2976 86.2621 86.3552C86.3957 86.4128 86.5395 86.4426 86.685 86.4426C86.8304 86.4426 86.9743 86.4128 87.1078 86.3552C87.2413 86.2976 87.3617 86.2132 87.4614 86.1074C87.5611 86.0016 87.6382 85.8765 87.6878 85.7398C87.7374 85.6031 87.7586 85.4577 87.75 85.3125V70.5469C87.75 70.2646 87.6381 69.9938 87.4388 69.7938C87.2396 69.5938 86.9692 69.481 86.6868 69.48Z" fill="black"/>
<path d="M83.3644 25.2075C79.9425 25.2075 77.1562 28.9969 77.1562 33.6563C77.1562 38.3156 79.9425 42.1069 83.3644 42.1069C86.8444 42.1069 89.5706 38.3944 89.5706 33.6563C89.5706 28.9181 86.8444 25.2075 83.3644 25.2075ZM83.3644 39.9731C81.1556 39.9731 79.29 37.08 79.29 33.6563C79.29 30.2325 81.1556 27.3394 83.3644 27.3394C85.5731 27.3394 87.4369 30.2325 87.4369 33.6563C87.4369 37.08 85.5731 39.9731 83.3644 39.9731Z" fill="black"/>
<path d="M64.2881 42.1069C64.4282 42.1066 64.5669 42.0788 64.6962 42.0249C64.8256 41.9711 64.9431 41.8923 65.042 41.793C65.1408 41.6938 65.2192 41.5761 65.2726 41.4465C65.326 41.317 65.3534 41.1782 65.3531 41.0381L65.3419 26.2725C65.3479 26.1287 65.3248 25.9853 65.2739 25.8507C65.2231 25.7161 65.1455 25.5932 65.046 25.4893C64.9464 25.3855 64.8268 25.3029 64.6945 25.2464C64.5622 25.19 64.4198 25.1609 64.2759 25.1609C64.1321 25.1609 63.9897 25.19 63.8573 25.2464C63.725 25.3029 63.6055 25.3855 63.5059 25.4893C63.4063 25.5932 63.3288 25.7161 63.2779 25.8507C63.2271 25.9853 63.204 26.1287 63.21 26.2725L63.2212 41.04C63.221 41.1802 63.2484 41.319 63.3019 41.4485C63.3555 41.5781 63.434 41.6958 63.5332 41.7949C63.6323 41.894 63.75 41.9726 63.8795 42.0261C64.0091 42.0797 64.1479 42.1071 64.2881 42.1069Z" fill="black"/>
<path d="M72.4144 41.0456V26.2781C72.4204 26.1344 72.3973 25.9909 72.3464 25.8563C72.2956 25.7217 72.218 25.5988 72.1185 25.495C72.0189 25.3911 71.8993 25.3085 71.767 25.252C71.6347 25.1956 71.4923 25.1665 71.3484 25.1665C71.2046 25.1665 71.0622 25.1956 70.9298 25.252C70.7975 25.3085 70.678 25.3911 70.5784 25.495C70.4788 25.5988 70.4013 25.7217 70.3504 25.8563C70.2996 25.9909 70.2765 26.1344 70.2825 26.2781V41.0456C70.2765 41.1893 70.2996 41.3328 70.3504 41.4674C70.4013 41.602 70.4788 41.7249 70.5784 41.8287C70.678 41.9326 70.7975 42.0152 70.9298 42.0716C71.0622 42.1281 71.2046 42.1572 71.3484 42.1572C71.4923 42.1572 71.6347 42.1281 71.767 42.0716C71.8993 42.0152 72.0189 41.9326 72.1185 41.8287C72.218 41.7249 72.2956 41.602 72.3464 41.4674C72.3973 41.3328 72.4204 41.1893 72.4144 41.0456Z" fill="black"/>
<path d="M13.2994 48.1556C16.7213 48.1556 19.5075 44.3644 19.5075 39.705C19.5075 35.0456 16.7213 31.2544 13.2994 31.2544C9.81939 31.2544 7.09314 34.9669 7.09314 39.705C7.09314 44.4431 9.81939 48.1556 13.2994 48.1556ZM13.2994 33.3881C15.5081 33.3881 17.3738 36.2813 17.3738 39.705C17.3738 43.1288 15.4988 46.0219 13.2994 46.0219C11.1 46.0219 9.22689 43.125 9.22689 39.705C9.22689 36.285 11.0906 33.3881 13.2994 33.3881Z" fill="black"/>
<path d="M28.4681 48.1556C31.89 48.1556 34.6762 44.3644 34.6762 39.705C34.6762 35.0456 31.89 31.2544 28.4681 31.2544C24.9881 31.2544 22.2637 34.9669 22.2637 39.705C22.2637 44.4431 24.9881 48.1556 28.4681 48.1556ZM28.4681 33.3881C30.6769 33.3881 32.5425 36.2813 32.5425 39.705C32.5425 43.1288 30.6769 46.0219 28.4681 46.0219C26.2594 46.0219 24.3956 43.125 24.3956 39.705C24.3956 36.285 26.2594 33.3881 28.4681 33.3881Z" fill="black"/>
<path d="M24.4331 25.6669C24.5732 25.6666 24.7119 25.6388 24.8413 25.5849C24.9706 25.5311 25.0881 25.4523 25.187 25.3531C25.2859 25.2538 25.3643 25.1361 25.4176 25.0065C25.471 24.877 25.4984 24.7382 25.4981 24.5981L25.485 9.8325C25.485 9.54955 25.3726 9.27818 25.1725 9.07811C24.9724 8.87803 24.7011 8.76562 24.4181 8.76562C24.1352 8.76562 23.8638 8.87803 23.6637 9.07811C23.4637 9.27818 23.3513 9.54955 23.3513 9.8325L23.3663 24.6C23.366 24.7402 23.3934 24.879 23.447 25.0086C23.5005 25.1381 23.5791 25.2558 23.6782 25.3549C23.7773 25.4541 23.895 25.5326 24.0246 25.5862C24.1541 25.6397 24.293 25.6671 24.4331 25.6669Z" fill="black"/>
<path d="M32.5013 25.6669C32.7844 25.6664 33.0558 25.5536 33.2558 25.3532C33.4558 25.1528 33.5681 24.8812 33.5681 24.5981L33.5625 9.8325C33.5625 9.54955 33.4501 9.27818 33.25 9.07811C33.05 8.87803 32.7786 8.76562 32.4956 8.76562C32.2127 8.76562 31.9413 8.87803 31.7413 9.07811C31.5412 9.27818 31.4288 9.54955 31.4288 9.8325L31.4419 24.6C31.4414 24.8818 31.5526 25.1523 31.7512 25.3523C31.9497 25.5523 32.2195 25.6654 32.5013 25.6669Z" fill="black"/>
<path d="M16.3575 25.6613C16.6405 25.6613 16.9118 25.5489 17.1119 25.3488C17.312 25.1487 17.4244 24.8773 17.4244 24.5944V9.82688C17.4244 9.54393 17.312 9.27257 17.1119 9.07249C16.9118 8.87241 16.6405 8.76001 16.3575 8.76001C16.0746 8.76001 15.8032 8.87241 15.6031 9.07249C15.4031 9.27257 15.2906 9.54393 15.2906 9.82688V24.5944C15.2906 24.8773 15.4031 25.1487 15.6031 25.3488C15.8032 25.5489 16.0746 25.6613 16.3575 25.6613Z" fill="black"/>
<path d="M9.31315 25.6613C9.5961 25.6613 9.86747 25.5489 10.0675 25.3488C10.2676 25.1487 10.38 24.8773 10.38 24.5944V9.82688C10.38 9.54393 10.2676 9.27257 10.0675 9.07249C9.86747 8.87241 9.5961 8.76001 9.31315 8.76001C9.0302 8.76001 8.75883 8.87241 8.55876 9.07249C8.35868 9.27257 8.24628 9.54393 8.24628 9.82688V24.5944C8.24628 24.8773 8.35868 25.1487 8.55876 25.3488C8.75883 25.5489 9.0302 25.6613 9.31315 25.6613Z" fill="black"/>
<path d="M12.6375 69.9375C16.1194 69.9375 18.8438 66.2231 18.8438 61.4869C18.8438 56.7506 16.125 53.0363 12.6375 53.0363C9.21563 53.0363 6.42938 56.8256 6.42938 61.485C6.42938 66.1444 9.21563 69.9375 12.6375 69.9375ZM12.6375 55.17C14.8463 55.17 16.71 58.0631 16.71 61.4869C16.71 64.9106 14.8463 67.8 12.6375 67.8019C10.4288 67.8038 8.56313 64.9088 8.56313 61.485C8.56313 58.0613 10.4306 55.1681 12.6375 55.1681V55.17Z" fill="black"/>
<path d="M31.7156 53.0363C31.4327 53.0363 31.1613 53.1487 30.9612 53.3487C30.7611 53.5488 30.6487 53.8202 30.6487 54.1031L30.66 68.8688C30.66 69.1517 30.7724 69.4231 30.9725 69.6232C31.1726 69.8232 31.4439 69.9356 31.7269 69.9356C32.0098 69.9356 32.2812 69.8232 32.4813 69.6232C32.6813 69.4231 32.7937 69.1517 32.7937 68.8688L32.7825 54.105C32.783 53.9647 32.7557 53.8256 32.7023 53.6959C32.6489 53.5661 32.5704 53.4482 32.4712 53.3489C32.3721 53.2495 32.2543 53.1708 32.1246 53.1171C31.9949 53.0635 31.8559 53.036 31.7156 53.0363Z" fill="black"/>
<path d="M23.5857 54.0956V68.8631C23.5796 69.0069 23.6027 69.1504 23.6536 69.285C23.7044 69.4195 23.782 69.5424 23.8815 69.6463C23.9811 69.7501 24.1007 69.8327 24.233 69.8892C24.3653 69.9456 24.5077 69.9747 24.6516 69.9747C24.7955 69.9747 24.9378 69.9456 25.0702 69.8892C25.2025 69.8327 25.3221 69.7501 25.4216 69.6463C25.5212 69.5424 25.5988 69.4195 25.6496 69.285C25.7005 69.1504 25.7236 69.0069 25.7175 68.8631V54.0956C25.706 53.8207 25.5886 53.5608 25.39 53.3703C25.1914 53.1798 24.9268 53.0735 24.6516 53.0735C24.3764 53.0735 24.1118 53.1798 23.9132 53.3703C23.7145 53.5608 23.5972 53.8207 23.5857 54.0956Z" fill="black"/>
</svg>
