<svg width="64" height="45" viewBox="0 0 64 45" fill="none" xmlns="http://www.w3.org/2000/svg">
    <path d="M61.6061 44.8915H2.38783C1.75454 44.8915 1.14718 44.6399 0.69938 44.1921C0.251574 43.7443 0 43.137 0 42.5037V2.38808C0 1.75478 0.251574 1.14743 0.69938 0.699625C1.14718 0.251819 1.75454 0.000244141 2.38783 0.000244141H61.6061C62.2393 0.000244141 62.8467 0.251819 63.2945 0.699625C63.7423 1.14743 63.9939 1.75478 63.9939 2.38808V42.5037C63.9939 43.137 63.7423 43.7443 63.2945 44.1921C62.8467 44.6399 62.2393 44.8915 61.6061 44.8915ZM4.77566 40.1158H59.2182V4.77591H4.77566V40.1158Z" fill="#008B8B"/>
    <path d="M31.9964 33.7489C31.3721 33.7488 30.7727 33.5043 30.3265 33.0676L0.717426 4.09523C0.264833 3.65192 0.00687946 3.04698 0.000311645 2.41349C-0.00625617 1.77999 0.2391 1.16984 0.682405 0.717243C1.12571 0.26465 1.73065 0.00669635 2.36414 0.00012854C2.99764 -0.00643927 3.6078 0.238917 4.06039 0.682221L31.9964 28.0181L59.9356 0.682221C60.1598 0.462719 60.4249 0.289507 60.7159 0.172473C61.007 0.0554392 61.3182 -0.00312351 61.6319 0.00012854C61.9456 0.00338059 62.2555 0.0683839 62.5441 0.191427C62.8326 0.314469 63.0941 0.493142 63.3136 0.717243C63.5331 0.941344 63.7063 1.20648 63.8234 1.49753C63.9404 1.78857 63.999 2.09981 63.9957 2.41349C63.9925 2.72716 63.9275 3.03713 63.8044 3.32568C63.6814 3.61424 63.5027 3.87573 63.2786 4.09523L33.6695 33.0676C33.2226 33.505 32.6218 33.7497 31.9964 33.7489Z" fill="#008B8B"/>
    <path d="M2.38736 44.8909C1.90554 44.8891 1.43554 44.7416 1.03911 44.4678C0.642683 44.1939 0.338368 43.8066 0.166156 43.3566C-0.00605627 42.9066 -0.0381088 42.415 0.0742087 41.9465C0.186526 41.4779 0.43796 41.0543 0.795472 40.7313L22.1061 21.4759C22.3373 21.2572 22.6098 21.0869 22.9078 20.9751C23.2057 20.8632 23.523 20.8121 23.8409 20.8246C24.1589 20.8371 24.4712 20.9131 24.7594 21.048C25.0476 21.1829 25.3059 21.3741 25.5192 21.6103C25.7325 21.8465 25.8964 22.1229 26.0013 22.4234C26.1062 22.7238 26.15 23.0422 26.1301 23.3598C26.1102 23.6774 26.0271 23.9878 25.8855 24.2728C25.7439 24.5578 25.5468 24.8117 25.3058 25.0194L3.98721 44.2812C3.54762 44.6752 2.97767 44.8924 2.38736 44.8909Z" fill="#008B8B"/>
    <path d="M61.6052 44.8918C61.0166 44.8908 60.4493 44.6713 60.0133 44.2758L38.6948 25.0139C38.2416 24.5853 37.9742 23.9964 37.9497 23.3732C37.9251 22.7499 38.1454 22.1418 38.5634 21.6789C38.9814 21.216 39.5639 20.935 40.1864 20.896C40.8089 20.8571 41.422 21.0632 41.8945 21.4704L63.213 40.7322C63.5715 41.0561 63.8234 41.4812 63.9352 41.9512C64.0471 42.4213 64.0137 42.9142 63.8395 43.3649C63.6653 43.8156 63.3584 44.2028 62.9595 44.4754C62.5606 44.748 62.0884 44.8932 61.6052 44.8918Z" fill="#008B8B"/>
</svg>
