<svg width="65" height="64" viewBox="0 0 65 64" fill="none" xmlns="http://www.w3.org/2000/svg">
    <path d="M32.3333 61.7142C48.7441 61.7142 62.0476 48.4107 62.0476 31.9999C62.0476 15.5892 48.7441 2.28564 32.3333 2.28564C15.9226 2.28564 2.61904 15.5892 2.61904 31.9999C2.61904 48.4107 15.9226 61.7142 32.3333 61.7142Z" stroke="#1E202E" stroke-width="2"/>
    <path d="M8.75009 27.8735C10.472 17.9611 18.2929 10.1409 28.2053 8.41821M55.0891 36.1264C53.3672 46.0388 45.5463 53.859 35.6339 55.5816" stroke="#008B8B" stroke-width="2"/>
    <path d="M32.3333 17.1428V31.9999H41.8251M2.61904 31.9999H11.6987M62.0476 31.9999H52.968M11.3215 10.9889L17.7413 17.4087M53.3436 53.011L46.9238 46.5912M32.3333 2.28564V11.3653M32.3333 61.7142V52.6346M53.3451 10.9889L46.9253 17.4087M11.323 53.011L17.7429 46.5912" stroke="#111111" stroke-width="2"/>
</svg>
