<svg width="76" height="76" viewBox="0 0 76 76" fill="none" xmlns="http://www.w3.org/2000/svg">
    <g clip-path="url(#clip0_343_371)">
        <path d="M73.3466 33.058C73.5346 34.57 73.6296 36.176 73.6296 37.688C73.6296 57.53 57.4506 73.688 37.5816 73.688C29.0666 73.688 21.3086 70.758 15.1586 65.845C14.7796 65.562 14.4966 65.278 14.1186 64.995M3.90064 50.35C2.38664 46.38 1.62964 42.129 1.62964 37.688C1.62964 17.845 17.8086 1.68799 37.6766 1.68799C43.8266 1.68799 49.5986 3.19999 54.6126 5.93999" stroke="#111111" stroke-width="2" stroke-dasharray="3 3"/>
        <path d="M61.4236 32.396C64.3566 45.53 56.0306 58.57 42.8796 61.404C34.8376 63.2 26.7956 60.743 21.1196 55.641M14.3076 44.869C14.1186 44.208 13.9296 43.641 13.8346 42.979C10.9016 29.845 19.2276 16.806 32.3786 13.971C38.3075 12.6114 44.5315 13.5573 49.7886 16.617" stroke="#111111" stroke-width="2"/>
        <path d="M54.0447 15.389V20.774H59.6267L42.3117 37.594L32.6617 29.278L7.68365 55.735L11.6577 59.515L33.0397 36.837L42.5017 44.963L62.8437 25.215V29.656H68.3307V15.39H54.0447V15.389Z" stroke="#008B8B" stroke-width="2"/>
    </g>
    <defs>
        <clipPath id="clip0_343_371">
            <rect width="75" height="75" fill="white" transform="translate(0.166626 0.5)"/>
        </clipPath>
    </defs>
</svg>
