<svg width="65" height="64" viewBox="0 0 65 64" fill="none" xmlns="http://www.w3.org/2000/svg">
    <g clip-path="url(#clip0_343_91)">
        <path d="M60.5958 23.1414C61.9847 23.1414 63.0567 21.9795 63.0567 20.6249V18.2371C63.0567 16.8176 61.9215 15.7205 60.5958 15.7205H59.334C59.0186 14.4938 58.5135 13.3327 57.8826 12.2355L58.7664 11.3327C59.7127 10.3651 59.7127 8.75135 58.7664 7.71897L57.1253 6.04126C56.7466 5.45993 56.115 5.2024 55.4209 5.2024C54.7276 5.2024 54.1592 5.45993 53.654 5.91174L52.7702 6.81535C51.6982 6.17002 50.5622 5.65345 49.363 5.33116V4.0405C49.363 2.62107 48.227 1.52393 46.902 1.52393H44.5668C43.1786 1.52393 42.1059 2.68583 42.1059 4.0405V5.33116C40.9066 5.65345 39.7706 6.17002 38.6979 6.81535L37.814 5.91174C37.3721 5.45993 36.7413 5.2024 36.0472 5.2024C35.3531 5.2024 34.7855 5.45993 34.2796 5.91174L32.6392 7.58945C31.6929 8.55707 31.6929 10.1708 32.6392 11.2032L33.523 12.1068C32.8921 13.2039 32.387 14.3651 32.0716 15.591H30.8091C29.4209 15.591 28.3481 16.7529 28.3481 18.1075V20.4954C28.3481 21.9155 29.4834 23.0119 30.8091 23.0119H32.0716C32.387 24.2386 32.8921 25.3997 33.523 26.4969L32.6392 27.3997C31.6929 28.3674 31.6929 29.9811 32.6392 31.0135L34.2803 32.6912C34.7222 33.143 35.3531 33.4013 36.048 33.4013C36.7413 33.4013 37.3097 33.143 37.814 32.6912L38.6979 31.7883C39.7706 32.4336 40.9066 32.9494 42.1059 33.2725V34.5632C42.1059 35.9826 43.2411 37.0797 44.5668 37.0797H46.902C48.2902 37.0797 49.363 35.9178 49.363 34.5632V33.2725C50.5622 32.9494 51.6975 32.4336 52.771 31.7883L53.6548 32.6912C54.096 33.143 54.7268 33.4013 55.4209 33.4013C56.1158 33.4013 56.6834 33.143 57.1885 32.6912L58.8289 31.0135C59.776 30.0458 59.776 28.4329 58.8289 27.4005L57.9451 26.6256C58.5767 25.5285 59.0811 24.3674 59.3973 23.1414H60.5958V23.1414Z" stroke="#111111" stroke-width="2" stroke-miterlimit="10"/>
        <path d="M44.1752 42.6294C44.7695 42.8839 45.2799 43.0538 45.7897 43.3075C47.4887 43.9863 48.2529 45.9376 47.5725 47.6336C47.1481 48.5669 46.8091 49.5841 46.3839 50.5174C45.7043 52.2134 43.7508 52.9768 42.0525 52.2987C41.5111 52.1133 40.9969 51.8566 40.5234 51.5353C39.5099 52.8864 38.3087 54.0858 36.9561 55.0972C37.2106 55.6915 37.3805 56.2004 37.635 56.7086C38.3999 58.4054 37.5504 60.3559 35.8521 61.0347C34.9173 61.4583 33.8978 61.7981 32.9638 62.2218C32.5599 62.3898 32.1269 62.4763 31.6895 62.4763C31.2521 62.4763 30.819 62.3898 30.4152 62.2218C29.651 61.8827 28.9714 61.2892 28.6323 60.4412C28.3771 59.8469 28.2072 59.338 27.9519 58.829C26.2913 59.0835 24.6016 59.0835 22.9409 58.829C22.6864 59.338 22.5158 59.9322 22.2613 60.4412C21.5817 62.1372 19.6281 62.9006 17.9291 62.2218C16.995 61.7981 15.9756 61.4583 15.0415 61.0347C13.3424 60.3566 12.5782 58.4054 13.2578 56.7086C13.5123 56.1151 13.6822 55.6061 13.9375 55.0972C12.5849 54.0858 11.3836 52.8864 10.3702 51.5353C9.77594 51.7898 9.26547 51.9589 8.75575 52.2134C8.35203 52.3813 7.9191 52.4677 7.48185 52.4677C7.0446 52.4677 6.61167 52.3813 6.20794 52.2134C5.44375 51.8743 4.76413 51.2808 4.42432 50.4328C3.99918 49.4995 3.65937 48.4823 3.23499 47.549C2.4708 45.8522 3.32032 43.9018 5.01861 43.2229C5.6129 42.9684 6.12337 42.7993 6.63232 42.5448C6.3775 40.8865 6.3775 39.199 6.63232 37.5406C6.03804 37.2861 5.52832 37.1162 5.01861 36.8625C3.31956 36.1837 2.55537 34.2324 3.23499 32.5364C3.65937 31.6031 3.99918 30.586 4.42356 29.6526C5.10394 27.9566 7.05747 27.1932 8.75575 27.8713C9.35004 28.1258 9.86052 28.2957 10.3702 28.5494C11.3836 27.1982 12.5848 25.9988 13.9375 24.9875C13.6822 24.394 13.5123 23.885 13.2578 23.376C12.4937 21.68 13.3424 19.7288 15.0415 19.0507C15.9756 18.6263 16.995 18.2873 17.9291 17.8629C18.3329 17.6949 18.766 17.6084 19.2034 17.6084C19.6408 17.6084 20.0738 17.6949 20.4777 17.8629C21.2418 18.2027 21.9215 18.7962 22.2613 19.6442C22.4312 20.1532 22.6864 20.7467 22.8556 21.3402" stroke="#111111" stroke-width="2" stroke-linecap="round" stroke-linejoin="round"/>
        <path d="M35.5466 40.0427C35.5466 45.6533 30.998 50.2011 25.3881 50.2011C19.7775 50.2011 15.2289 45.6526 15.2289 40.0427C15.2289 34.432 19.7775 29.8842 25.3881 29.8842M52.4761 19.3013C52.4856 20.1967 52.3175 21.0851 51.9814 21.9151C51.6453 22.745 51.148 23.5001 50.5182 24.1366C49.8884 24.7731 49.1386 25.2784 48.3123 25.6233C47.4859 25.9682 46.5994 26.1457 45.7039 26.1457C44.8085 26.1457 43.922 25.9682 43.0956 25.6233C42.2692 25.2784 41.5195 24.7731 40.8897 24.1366C40.2599 23.5001 39.7625 22.745 39.4265 21.9151C39.0904 21.0851 38.9222 20.1967 38.9317 19.3013C38.9507 17.5177 39.6725 15.8135 40.9405 14.5589C42.2084 13.3043 43.9202 12.6006 45.7039 12.6006C47.4877 12.6006 49.1994 13.3043 50.4674 14.5589C51.7354 15.8135 52.4572 17.5177 52.4761 19.3013Z" stroke="#008B8B" stroke-width="2"/>
    </g>
    <defs>
        <clipPath id="clip0_343_91">
            <rect width="64" height="64" fill="white" transform="translate(0.666626)"/>
        </clipPath>
    </defs>
</svg>
