<svg width="64" height="64" viewBox="0 0 64 64" fill="none" xmlns="http://www.w3.org/2000/svg">
    <g clip-path="url(#clip0_343_98)">
        <path d="M24.0998 59.2151V56.5926C24.0998 53.7995 21.8651 51.5641 19.072 51.5641H11.5695C10.9084 51.5613 10.2532 51.6894 9.64182 51.9411C9.03046 52.1928 8.47499 52.5631 8.00748 53.0306C7.53997 53.4981 7.16968 54.0536 6.91797 54.665C6.66626 55.2763 6.53812 55.9315 6.54094 56.5926V59.2151M41.0316 25.8544V23.2319C41.0316 20.4387 38.7969 18.2033 36.003 18.2033H28.5013C27.8402 18.2005 27.185 18.3286 26.5736 18.5803C25.9623 18.8321 25.4068 19.2023 24.9393 19.6699C24.4718 20.1374 24.1015 20.6928 23.8498 21.3042C23.5981 21.9156 23.4699 22.5707 23.4727 23.2319V25.8544M57.9657 59.0902V56.4677C57.9657 53.6746 55.7318 51.4391 52.9379 51.4391H45.4362C44.775 51.4363 44.1199 51.5644 43.5085 51.8162C42.8971 52.0679 42.3417 52.4382 41.8741 52.9057C41.4066 53.3732 41.0363 53.9286 40.7846 54.54C40.5329 55.1514 40.4048 55.8065 40.4076 56.4677V59.0902M20.3505 46.057C20.3505 48.8509 18.1158 51.0856 15.3227 51.0856C14.6615 51.0884 14.0063 50.9603 13.395 50.7086C12.7836 50.4569 12.2281 50.0866 11.7606 49.6191C11.2931 49.1516 10.9228 48.5961 10.6711 47.9847C10.4194 47.3733 10.2913 46.7182 10.2941 46.057C10.2915 45.396 10.4198 44.741 10.6716 44.1298C10.9234 43.5186 11.2937 42.9633 11.7612 42.496C12.2287 42.0286 12.7841 41.6585 13.3953 41.4069C14.0066 41.1553 14.6616 41.0272 15.3227 41.03C18.1158 41.03 20.3512 43.2646 20.3512 46.0578L20.3505 46.057ZM37.2823 12.697C37.2823 15.4902 35.0476 17.7256 32.2537 17.7256C31.5926 17.7283 30.9375 17.6001 30.3262 17.3484C29.715 17.0966 29.1596 16.7263 28.6922 16.2588C28.2247 15.7913 27.8545 15.2359 27.6028 14.6245C27.3512 14.0132 27.2231 13.3581 27.2259 12.697C27.2259 9.90389 29.4606 7.66846 32.2545 7.66846C35.0476 7.66846 37.283 9.90389 37.283 12.697H37.2823ZM54.2171 45.9328C54.2171 48.726 51.9825 50.9614 49.1886 50.9614C48.5274 50.9642 47.8722 50.8361 47.2609 50.5844C46.6495 50.3327 46.094 49.9624 45.6265 49.4949C45.159 49.0274 44.7887 48.4719 44.537 47.8605C44.2853 47.2492 44.1572 46.594 44.16 45.9328C44.16 43.1397 46.3954 40.9043 49.1886 40.9043C51.9825 40.9043 54.2171 43.1397 54.2171 45.9328Z" stroke="#008B8B" stroke-width="2"/>
        <path d="M25.667 39.4622L32.2514 35.6999M32.2499 35.6992L38.8343 39.4622M32.2529 29.1163V35.7007M15.3196 62.4763C7.71961 62.4763 1.5238 56.3308 1.5238 48.7133C1.5238 41.0957 7.71961 34.8854 15.3196 34.8854C22.9204 34.8854 29.1154 41.095 29.1154 48.714C29.0514 56.33 22.9204 62.4763 15.3196 62.4763ZM32.256 29.1155C24.6552 29.1155 18.4602 22.97 18.4602 15.3517C18.4602 7.73345 24.6552 1.52393 32.2552 1.52393C39.8552 1.52393 46.051 7.73345 46.051 15.3525C45.987 22.97 39.8552 29.1155 32.2552 29.1155H32.256ZM49.1802 62.3521C41.5794 62.3521 35.3836 56.2066 35.3836 48.5883C35.3836 40.97 41.5794 34.7605 49.1802 34.7605C56.7802 34.7605 62.976 40.97 62.976 48.5891C62.912 56.2066 56.7802 62.3521 49.1802 62.3521Z" stroke="#111111" stroke-width="2"/>
    </g>
    <defs>
        <clipPath id="clip0_343_98">
            <rect width="64" height="64" fill="white"/>
        </clipPath>
    </defs>
</svg>
