<svg width="425" height="425" viewBox="0 0 425 425" fill="none" xmlns="http://www.w3.org/2000/svg">
    <path d="M73.1 261.8L61.625 255C60.775 254.575 60.35 253.725 60.35 252.875C60.35 252.025 60.775 251.175 61.625 250.75L144.5 204.425C147.05 202.725 148.75 200.175 148.75 196.775V153C148.75 152.15 149.175 151.725 149.6 151.3C150.45 150.875 150.875 150.875 151.725 151.3L159.375 155.975C159.8 155.975 159.8 156.825 159.8 156.825C159.8 157.25 158.95 157.25 158.95 157.25L151.3 152.575C150.875 152.575 150.875 152.575 150.875 152.575C150.875 152.575 150.45 152.575 150.45 153V197.2C150.45 201.025 148.325 204.425 145.35 206.125L62.475 252.025C62.05 252.45 62.05 252.45 62.05 252.875C62.05 252.875 62.05 253.3 62.475 253.725L73.95 260.525C74.375 260.95 74.375 261.375 74.375 261.375C73.95 261.375 73.525 261.8 73.1 261.8Z" fill="#00B58B"/>
    <path d="M78.8886 267.833L82.0595 262.303L70.2616 255.538L67.0906 261.069L78.8886 267.833Z" fill="#111111"/>
    <path d="M66.3 259.25C66.3 257.975 67.15 256.275 68.425 255.425C69.7 254.575 70.55 255.425 70.55 256.7C70.55 257.975 69.7 259.675 68.425 260.525C67.575 261.375 66.3 260.95 66.3 259.25Z" fill="#111111"/>
    <path d="M94.2819 278.717L99.3554 269.869L80.921 259.299L75.8475 268.148L94.2819 278.717Z" fill="#00B58B"/>
    <path d="M79.9 260.95L76.075 258.825C74.375 260.1 73.1 262.225 73.1 264.35L76.925 266.475C78.625 265.2 79.9 263.075 79.9 260.95Z" fill="#396CAA"/>
    <path d="M74.8 265.625C74.8 263.5 76.5 260.525 78.2 259.25C80.325 257.975 81.6 258.825 82.025 261.375C82.025 263.5 80.325 266.475 78.625 267.75C76.5 269.025 74.8 268.175 74.8 265.625Z" fill="#00B58B"/>
    <path d="M70.125 257.975C69.7 257.55 69.7 257.125 70.125 256.7C70.55 256.275 71.825 256.275 72.25 256.7C72.675 257.125 72.675 257.55 72.25 257.975C71.825 258.4 70.55 258.4 70.125 257.975Z" fill="#00B58B"/>
    <path d="M168.365 165.373L171.536 159.843L159.738 153.078L156.567 158.609L168.365 165.373Z" fill="#111111"/>
    <path d="M155.975 156.825C155.975 155.55 156.825 153.85 158.1 153C159.375 152.15 160.225 153 160.225 154.275C160.225 155.55 159.375 157.25 158.1 158.1C156.825 158.95 155.975 158.525 155.975 156.825Z" fill="#111111"/>
    <path d="M183.758 176.259L188.832 167.411L170.397 156.841L165.324 165.69L183.758 176.259Z" fill="#00B58B"/>
    <path d="M169.575 158.525L165.75 156.4C164.05 157.675 162.775 159.8 162.775 161.925L166.6 164.05C168.3 162.775 169.575 160.65 169.575 158.525Z" fill="#00B58B"/>
    <path d="M164.475 163.2C164.475 161.075 166.175 158.1 167.875 156.825C170 155.55 171.275 156.4 171.7 158.95C171.7 161.075 170 164.05 168.3 165.325C165.75 166.6 164.475 165.75 164.475 163.2Z" fill="#111111"/>
    <path d="M159.8 155.55C159.375 155.125 159.375 154.7 159.8 154.275C160.225 153.85 161.5 153.85 161.925 154.275C162.35 154.7 162.35 155.125 161.925 155.55C161.075 155.975 160.225 155.975 159.8 155.55Z" fill="#D4ECFF"/>
    <path d="M205.275 183.6C204.85 183.6 204.85 183.6 204.425 183.175C204.425 182.75 204.425 182.325 204.85 182.325L233.325 165.75C235.875 164.475 237.15 161.925 237.15 158.95V116.025C237.15 115.175 237.575 114.325 238.425 113.9C239.275 113.475 240.125 113.475 240.975 113.9L287.3 140.675V104.55C287.3 104.125 287.725 103.7 288.15 103.7C288.575 103.7 289 104.125 289 104.55V141.95C289 142.375 289 142.375 288.575 142.8C288.15 142.8 288.15 142.8 287.725 142.8L240.55 115.6C240.125 115.175 239.7 115.6 239.7 115.6C239.7 115.6 239.275 116.025 239.275 116.45V159.375C239.275 162.775 237.575 165.75 234.6 167.45L205.275 183.6C205.275 183.6 205.7 183.6 205.275 183.6Z" fill="#111111"/>
    <path d="M262.225 215.9C261.8 215.9 261.8 215.9 261.375 215.475C261.375 215.05 261.375 214.625 261.8 214.625L297.5 194.225C300.05 192.95 301.325 190.4 301.325 187.425V113.05C301.325 112.625 301.75 112.2 302.175 112.2C302.6 112.2 303.025 112.625 303.025 113.05V187C303.025 190.4 301.325 193.375 298.35 195.075L262.225 215.9C262.65 215.9 262.65 215.9 262.225 215.9Z" fill="#111111"/>
    <path d="M325.975 251.6C325.55 251.6 325.55 251.6 325.125 251.175C324.7 250.75 325.125 250.325 325.55 249.9L357.85 231.2C360.4 229.925 361.675 227.375 361.675 224.4V189.975C361.675 187.425 359.975 184.875 357.85 183.175L316.2 159.375C315.775 159.375 315.775 158.95 315.775 158.525V121.125C315.775 120.7 316.2 120.275 316.625 120.275C317.05 120.275 317.475 120.7 317.475 121.125V158.1L358.7 181.9C361.675 183.6 363.375 186.575 363.375 189.975V224.4C363.375 227.8 361.675 230.775 358.7 232.475L325.975 251.6C326.4 251.6 326.4 251.6 325.975 251.6Z" fill="#111111"/>
    <path d="M319.6 119H313.225V132.6H319.6V119Z" fill="#111111"/>
    <path d="M318.75 133.875C317.475 134.725 315.35 134.725 314.5 133.875C313.225 133.025 313.225 132.175 314.5 131.325C315.775 130.475 317.9 130.475 318.75 131.325C320.025 131.75 320.025 133.025 318.75 133.875Z" fill="#111111"/>
    <path d="M321.725 99.875H311.525V121.125H321.725V99.875Z" fill="#111111"/>
    <path d="M313.225 121.125V125.8C314.925 126.65 317.475 126.65 319.6 125.8V121.125C317.9 120.275 315.35 120.275 313.225 121.125Z" fill="#396CAA"/>
    <path d="M320.025 123.25C317.9 124.525 314.925 124.525 312.8 123.25C310.675 121.975 310.675 120.275 312.8 119C314.925 117.725 317.9 117.725 320.025 119C322.15 120.275 322.15 122.4 320.025 123.25Z" fill="#111111"/>
    <path d="M305.575 110.925H299.2V124.525H305.575V110.925Z" fill="#111111"/>
    <path d="M304.3 125.8C303.025 126.65 300.9 126.65 300.05 125.8C298.775 124.95 298.775 124.1 300.05 123.25C301.325 122.4 303.45 122.4 304.3 123.25C305.575 123.675 305.575 124.95 304.3 125.8Z" fill="#111111"/>
    <path d="M307.275 91.8H297.075V113.05H307.275V91.8Z" fill="#111111"/>
    <path d="M299.2 113.05V117.725C300.9 118.575 303.45 118.575 305.575 117.725V113.05C303.45 112.2 300.9 112.2 299.2 113.05Z" fill="#396CAA"/>
    <path d="M306 115.175C303.875 116.45 300.9 116.45 298.775 115.175C296.65 113.9 296.65 112.2 298.775 110.925C300.9 109.65 303.875 109.65 306 110.925C307.7 112.2 307.7 113.9 306 115.175Z" fill="#111111"/>
    <path d="M291.125 102.425H284.75V116.025H291.125V102.425Z" fill="#111111"/>
    <path d="M289.85 117.3C288.575 118.15 286.45 118.15 285.6 117.3C284.325 116.45 284.325 115.6 285.6 114.75C286.875 113.9 289 113.9 289.85 114.75C291.125 115.6 291.125 116.875 289.85 117.3Z" fill="#111111"/>
    <path d="M292.825 83.725H282.625V104.975H292.825V83.725Z" fill="#111111"/>
    <path d="M284.75 104.975V109.65C286.45 110.5 289 110.5 291.125 109.65V104.975C289 104.125 286.45 104.125 284.75 104.975Z" fill="#396CAA"/>
    <path d="M287.725 107.95C290.542 107.95 292.825 106.618 292.825 104.975C292.825 103.332 290.542 102 287.725 102C284.908 102 282.625 103.332 282.625 104.975C282.625 106.618 284.908 107.95 287.725 107.95Z" fill="#111111"/>
    <path d="M355.3 137.7L369.325 129.625L356.15 113.475L352.75 119L355.3 137.7Z" fill="#111111"/>
    <path d="M255.85 48.45L277.525 35.7L276.675 48.45L263.925 52.275L255.85 48.45Z" fill="#111111"/>
    <path d="M359.125 96.9C357.425 96.05 355.725 95.2 354.45 95.2C352.325 83.725 344.25 71.4 334.475 65.875C331.5 64.175 328.95 63.325 326.4 63.325C325.125 49.3 315.35 33.15 303.45 26.35C297.075 22.95 291.55 22.525 287.3 24.65C287.3 24.65 287.3 24.65 286.875 24.65L274.125 32.3L278.375 35.7C274.55 37.4 272 41.65 272 48.025C272 59.925 280.075 73.95 290.275 79.9L358.7 128.775C366.35 133.025 372.725 129.625 372.725 120.7C373.15 112.2 366.775 101.15 359.125 96.9Z" fill="#00B58B"/>
    <path d="M272.85 42.925L302.6 25.5C296.65 22.525 291.55 22.1 287.725 24.225C287.725 24.225 287.725 24.225 287.3 24.225L274.55 31.875L278.8 35.275C275.825 36.975 273.7 39.1 272.85 42.925Z" fill="#00B58B"/>
    <path d="M327.675 93.5L349.35 80.75C345.525 74.375 340.425 68.85 334.9 65.45C334.05 65.025 333.625 64.6 332.775 64.175L305.15 80.75L327.675 93.5Z" fill="#00B58B"/>
    <path d="M280.5 33.575L290.275 39.1L307.7 28.9C306.425 28.05 305.15 27.2 303.875 26.35C301.75 25.075 299.625 24.225 297.925 23.8L280.5 33.575Z" fill="#D4ECFF"/>
    <path d="M346.8 77.35L329.375 87.55L335.325 94.35L351.05 85C349.775 82.025 348.5 79.475 346.8 77.35Z" fill="#D4ECFF"/>
    <path d="M345.525 104.975C343.825 104.125 342.125 103.275 340.85 103.275C338.725 91.8 330.65 79.475 320.875 73.95C317.9 72.25 315.35 71.4 312.8 71.4C311.525 56.95 301.75 40.8 290.275 34C277.525 26.775 267.325 32.725 267.325 47.175C267.325 47.6 267.325 48.025 267.325 48.875C257.975 44.625 250.75 49.3 250.75 60.35C250.75 72.25 258.825 86.275 269.025 92.225L345.95 136.425C353.6 140.675 359.975 137.275 359.975 128.35C359.55 119.85 353.175 109.225 345.525 104.975Z" fill="#D4ECFF"/>
    <path d="M266.9 48.875C266.9 48.45 266.9 48.025 266.9 47.175C261.8 45.05 257.125 45.9 254.575 49.3C257.55 46.75 262.225 46.75 266.9 48.875Z" fill="white"/>
    <path d="M346.8 103.7C345.1 102.85 343.4 102 342.125 102C340 90.525 331.925 78.2 322.15 72.675C319.175 70.975 316.625 70.125 314.075 70.125C312.8 56.1 303.025 39.95 291.125 33.15C283.05 28.475 276.25 28.9 272 33.575C276.25 30.175 282.625 29.75 290.275 34C302.175 40.8 311.95 56.95 313.225 70.975C315.775 70.975 318.325 72.25 321.3 73.525C331.075 79.05 339.15 91.375 341.275 102.85C342.55 103.275 344.25 103.7 345.95 104.55C353.6 108.8 359.975 119.85 359.975 128.35C359.975 131.325 359.125 133.875 357.85 135.575C359.975 133.875 361.25 130.9 361.25 127.075C360.825 119 354.45 108.375 346.8 103.7Z" fill="white"/>
    <path d="M265.2 52.275L271.15 54.825L270.725 48.45C270.725 48.025 270.725 47.6 270.725 47.175C270.725 41.65 272.425 37.4 275.4 35.7C278.375 34 283.05 34.425 287.725 37.4C298.35 43.35 307.7 58.225 308.55 71.4L308.975 74.8L312.375 75.225C314.5 75.225 316.625 76.075 318.75 77.35C327.25 82.025 334.9 93.5 336.6 104.125L337.025 106.675L339.575 107.1C340.85 107.1 341.7 107.525 342.975 108.375C349.35 112.2 354.875 121.55 354.875 129.2C354.875 132.175 354.025 133.875 352.75 134.725C351.475 135.575 349.35 135.15 346.8 133.875L270.725 89.25C261.8 84.15 254.15 70.975 254.15 60.775C254.15 56.525 255.425 53.55 257.55 52.275C258.4 51.85 259.25 51.425 260.525 51.425C262.225 51.425 263.5 51.425 265.2 52.275Z" fill="#008B8B"/>
    <path d="M303.875 100.725L306 99.45L303.875 98.175V100.725Z" fill="#111111"/>
    <path d="M297.5 73.1L299.625 72.25V73.1H297.5Z" fill="#111111"/>
    <path d="M309.4 94.35L311.525 93.075L307.7 89.25L309.4 94.35Z" fill="#111111"/>
    <path d="M305.15 99.45L295.375 93.925C294.95 93.5 294.525 93.075 294.525 92.225V81.175L306 87.975V99.025C306 99.45 305.575 99.875 305.15 99.45Z" fill="#111111"/>
    <path d="M299.625 72.25L289.425 79.05C289 79.475 289.425 80.325 289.85 80.75L300.475 87.125L311.1 93.5C311.95 93.925 311.95 93.075 311.525 92.65L301.325 73.95C300.9 72.25 300.05 71.825 299.625 72.25Z" fill="#111111"/>
    <path d="M303.025 100.725L293.25 95.2C292.825 94.775 292.4 94.35 292.4 93.5V82.45L303.875 89.25V100.3C303.875 100.725 303.45 100.725 303.025 100.725Z" fill="#D4ECFF"/>
    <path d="M297.5 73.1L287.3 79.9C286.875 80.325 287.3 81.175 287.725 81.6L298.35 87.975L308.975 94.35C309.825 94.775 309.825 93.925 309.4 93.5L299.2 74.8C298.775 73.525 297.925 73.1 297.5 73.1Z" fill="#D4ECFF"/>
    <path d="M286.875 114.75C286.875 115.6 286.45 115.6 286.025 115.175C285.6 114.75 285.175 113.9 285.175 113.475C285.175 112.625 285.6 112.625 286.025 113.05C286.45 113.475 286.875 114.325 286.875 114.75Z" fill="#D4ECFF"/>
    <path d="M201.875 263.925L230.775 247.35C232.475 246.5 232.475 244.375 230.35 243.525L202.725 227.375C200.6 226.1 197.625 226.1 195.925 226.95L167.025 243.525C165.325 244.375 165.325 246.5 167.45 247.35L195.075 263.5C197.2 264.775 200.175 264.775 201.875 263.925Z" fill="#B2D3EA"/>
    <path d="M157.25 230.775V218.45H185.3L195.075 212.925C197.2 211.65 201.025 211.65 203.575 213.35L212.5 218.45H240.55V231.2C240.55 232.05 240.125 232.9 239.275 233.325L203.15 254.15C201.025 255.425 197.2 255.425 194.65 253.725L159.375 233.75C157.675 232.9 157.25 232.05 157.25 230.775Z" fill="#008B8B"/>
    <path d="M198.9 212.075C200.6 212.075 202.3 212.5 203.575 213.35L212.5 218.45H240.55V231.2C240.55 232.05 240.125 232.9 239.275 233.325L203.15 254.15C201.875 255 200.175 255 198.9 255V212.075Z" fill="#00B58B"/>
    <path d="M237.15 218.45H240.125V231.2C240.125 232.05 239.7 232.9 238.85 233.325L237.15 234.175V218.45Z" fill="#111111"/>
    <path d="M202.3 254.575C200.6 255.425 197.625 255.425 195.5 254.575V240.125H202.3V254.575Z" fill="#111111"/>
    <path d="M202.725 241.4L238.85 220.575C240.975 219.3 240.975 217.175 238.425 215.475L203.575 195.5C201.025 194.225 197.2 193.8 195.075 195.075L158.95 215.9C156.825 217.175 156.825 219.3 159.375 221L194.225 240.975C196.775 242.675 200.6 242.675 202.725 241.4Z" fill="#D4ECFF"/>
    <path d="M202.3 237.575L232.475 220.15C234.175 218.875 234.175 217.175 232.05 215.9L202.725 198.9C200.6 197.625 197.2 197.625 195.5 198.475L165.325 215.9C163.625 217.175 163.625 218.875 165.75 220.15L195.075 237.15C197.2 238.85 200.175 238.85 202.3 237.575Z" fill="#111111"/>
    <path d="M170.425 234.175C170.425 235.025 171.275 236.3 171.7 236.725C172.55 237.15 172.975 236.725 172.975 235.875C172.975 235.025 172.125 233.75 171.7 233.325C171.275 232.9 170.425 233.325 170.425 234.175Z" fill="#D4ECFF"/>
    <path d="M165.75 231.2C165.75 232.05 166.6 233.325 167.025 233.75C167.875 234.175 168.3 233.75 168.3 232.9C168.3 232.05 167.45 230.775 167.025 230.35C166.6 229.925 165.75 230.35 165.75 231.2Z" fill="#D4ECFF"/>
    <path d="M161.075 228.65C161.075 229.5 161.925 230.775 162.35 231.2C163.2 231.625 163.625 231.2 163.625 230.35C163.625 229.5 162.775 228.225 162.35 227.8C161.925 227.375 161.075 227.8 161.075 228.65Z" fill="#D4ECFF"/>
    <path d="M157.25 210.8V198.475H185.3L195.075 192.95C197.2 191.675 201.025 191.675 203.575 193.375L212.5 198.475H240.55V211.225C240.55 212.075 240.125 212.925 239.275 213.35L203.15 234.175C201.025 235.45 197.2 235.45 194.65 233.75L159.8 213.775C157.675 212.925 157.25 212.075 157.25 210.8Z" fill="#008B8B"/>
    <path d="M198.9 192.1C200.6 192.1 202.3 192.525 203.575 193.375L212.5 198.475H240.55V211.225C240.55 212.075 240.125 212.925 239.275 213.35L203.15 234.175C201.875 234.6 200.6 235.025 199.325 235.025V192.1H198.9Z" fill="#00B58B"/>
    <path d="M237.15 198.475H240.125V211.225C240.125 212.075 239.7 212.925 238.85 213.35L237.15 214.2V198.475Z" fill="#111111"/>
    <path d="M202.3 234.6C200.6 235.45 197.625 235.45 195.5 234.6V220.15H202.3V234.6Z" fill="#111111"/>
    <path d="M202.725 221.425L238.85 200.6C240.975 199.325 240.975 197.2 238.425 195.5L203.575 175.525C201.025 174.25 197.2 173.825 195.075 175.1L158.95 195.925C156.825 197.2 156.825 199.325 159.375 201.025L194.225 221C196.775 222.7 200.6 222.7 202.725 221.425Z" fill="#D4ECFF"/>
    <path d="M202.3 218.025L232.475 200.6C234.175 199.325 234.175 197.625 232.05 196.35L202.725 179.35C200.6 178.075 197.2 178.075 195.5 178.925L165.325 196.35C163.625 197.625 163.625 199.325 165.75 200.6L195.075 217.6C197.2 218.875 200.175 218.875 202.3 218.025Z" fill="#111111"/>
    <path d="M170.425 214.2C170.425 215.05 171.275 216.325 171.7 216.75C172.55 217.175 172.975 216.75 172.975 215.9C172.975 215.05 172.125 213.775 171.7 213.35C171.275 212.925 170.425 213.35 170.425 214.2Z" fill="#D4ECFF"/>
    <path d="M165.75 211.65C165.75 212.5 166.6 213.775 167.025 214.2C167.875 214.625 168.3 214.2 168.3 213.35C168.3 212.5 167.45 211.225 167.025 210.8C166.6 210.375 165.75 210.375 165.75 211.65Z" fill="#111111"/>
    <path d="M161.075 208.675C161.075 209.525 161.925 210.8 162.35 211.225C163.2 211.65 163.625 211.225 163.625 210.375C163.625 209.525 162.775 208.25 162.35 207.825C161.925 207.4 161.075 207.825 161.075 208.675Z" fill="#111111"/>
    <path d="M157.25 190.825V178.5H185.3L195.075 172.975C197.2 171.7 201.025 171.7 203.575 173.4L212.5 178.5H240.55V191.25C240.55 192.1 240.125 192.95 239.275 193.375L203.15 214.2C201.025 215.475 197.2 215.475 194.65 213.775L159.8 193.8C157.675 192.95 157.25 192.1 157.25 190.825Z" fill="#008B8B"/>
    <path d="M198.9 172.125C200.6 172.125 202.3 172.55 203.575 173.4L212.5 178.5H240.55V191.25C240.55 192.1 240.125 192.95 239.275 193.375L203.15 214.2C201.875 214.625 200.6 215.05 199.325 215.05V172.125H198.9Z" fill="#00B58B"/>
    <path d="M237.15 178.5H240.125V191.25C240.125 192.1 239.7 192.95 238.85 193.375L237.15 194.225V178.5Z" fill="#111111"/>
    <path d="M202.3 214.625C200.6 215.475 197.625 215.475 195.5 214.625V200.175H202.3V214.625Z" fill="#111111"/>
    <path d="M202.725 201.875L238.85 181.05C240.975 179.775 240.975 177.65 238.425 175.95L203.575 155.975C201.025 154.7 197.2 154.275 195.075 155.55L158.95 176.375C156.825 177.65 156.825 179.775 159.375 181.475L194.225 201.45C196.775 202.725 200.6 203.15 202.725 201.875Z" fill="#D4ECFF"/>
    <path d="M159.375 178.925L194.225 198.9C196.775 200.175 200.6 200.6 202.725 199.325L238.85 178.5C239.275 178.075 239.7 178.075 240.125 177.65C240.975 178.925 240.55 180.2 238.85 181.05L202.725 201.875C200.6 203.15 196.775 203.15 194.225 201.45L159.375 181.475C157.25 180.2 156.825 178.925 157.675 177.65C158.1 177.65 158.525 178.5 159.375 178.925Z" fill="white"/>
    <path d="M170.425 194.225C170.425 195.075 171.275 196.35 171.7 196.775C172.55 197.2 172.975 196.775 172.975 195.925C172.975 195.075 172.125 193.8 171.7 193.375C171.275 192.95 170.425 193.375 170.425 194.225Z" fill="#111111"/>
    <path d="M165.75 191.675C165.75 192.525 166.6 193.8 167.025 194.225C167.875 194.65 168.3 194.225 168.3 193.375C168.3 192.525 167.45 191.25 167.025 190.825C166.6 190.4 165.75 190.825 165.75 191.675Z" fill="#D4ECFF"/>
    <path d="M161.075 188.7C161.075 189.55 161.925 190.825 162.35 191.25C163.2 191.675 163.625 191.25 163.625 190.4C163.625 189.55 162.775 188.275 162.35 187.85C161.925 187.425 161.075 187.85 161.075 188.7Z" fill="#D4ECFF"/>
    <path d="M200.6 188.7L217.6 178.925C218.45 178.5 218.45 177.225 217.175 176.8L201.025 167.45C199.75 166.6 198.05 166.6 196.775 167.45L179.775 177.225C178.925 177.65 178.925 178.925 180.2 179.35L196.35 188.7C197.625 189.125 199.75 189.55 200.6 188.7Z" fill="#00B58B"/>
    <path d="M198.9 180.625L201.025 179.35V178.925L198.9 177.65H198.475L196.35 178.925V179.35L198.475 180.625H198.9Z" fill="#D4ECFF"/>
    <path d="M217.6 178.925C217.6 178.925 217.175 178.925 217.6 178.925L201.025 169.575C199.75 168.725 198.05 168.725 196.775 169.575L179.775 179.35C178.925 178.5 178.925 177.65 179.775 177.225L196.775 167.45C197.625 167.025 199.75 167.025 201.025 167.45L217.175 176.8C218.45 177.225 218.45 178.5 217.6 178.925Z" fill="#396CAA"/>
    <path d="M265.625 299.625L294.525 283.05C296.225 282.2 296.225 280.075 294.1 279.225L266.475 263.075C264.35 261.8 261.375 261.8 259.675 262.65L230.775 279.225C229.075 280.075 229.075 282.2 231.2 283.05L258.825 299.2C260.95 300.475 263.925 300.475 265.625 299.625Z" fill="#B2D3EA"/>
    <path d="M221 266.475V254.15H249.05L258.825 248.625C260.95 247.35 264.775 247.35 267.325 249.05L276.25 254.15H304.3V266.9C304.3 267.75 303.875 268.6 303.025 269.025L266.9 289.85C264.775 291.125 260.95 291.125 258.4 289.425L223.55 269.45C221.425 268.6 220.575 267.75 221 266.475Z" fill="#008B8B"/>
    <path d="M262.225 247.775C263.925 247.775 265.625 248.2 266.9 249.05L275.825 254.15H303.875V266.9C303.875 267.75 303.45 268.6 302.6 269.025L266.475 289.85C265.2 290.275 263.925 290.7 262.65 290.7V247.775H262.225Z" fill="#00B58B"/>
    <path d="M300.9 254.15H303.875V266.9C303.875 267.75 303.45 268.6 302.6 269.025L300.9 269.875V254.15Z" fill="#111111"/>
    <path d="M266.05 290.275C264.35 291.125 261.375 291.125 259.25 290.275V275.825H266.05V290.275Z" fill="#111111"/>
    <path d="M266.475 277.525L302.6 256.7C304.725 255.425 304.725 253.3 302.175 251.6L267.325 231.625C264.775 230.35 260.95 229.925 258.825 231.2L222.7 252.025C220.575 253.3 220.575 255.425 223.125 257.125L257.975 277.1C260.525 278.375 264.35 278.8 266.475 277.525Z" fill="#D4ECFF"/>
    <path d="M265.625 273.7L295.8 256.275C297.5 255 297.5 253.3 295.375 252.025L266.05 235.025C264.35 233.75 260.95 233.75 259.25 234.6L229.075 252.025C227.375 253.3 227.375 255 229.5 256.275L258.825 273.275C260.525 274.55 263.925 274.55 265.625 273.7Z" fill="#111111"/>
    <path d="M234.175 269.875C234.175 270.725 235.025 272 235.45 272.425C236.3 272.85 236.725 272.425 236.725 271.575C236.725 270.725 235.875 269.45 235.45 269.025C234.6 268.6 234.175 269.025 234.175 269.875Z" fill="#D4ECFF"/>
    <path d="M229.5 267.325C229.5 268.175 230.35 269.45 230.775 269.875C231.625 270.3 232.05 269.875 232.05 269.025C232.05 268.175 231.2 266.9 230.775 266.475C229.925 266.05 229.5 266.475 229.5 267.325Z" fill="#111111"/>
    <path d="M224.825 264.35C224.825 265.2 225.675 266.475 226.1 266.9C226.95 267.325 227.375 266.9 227.375 266.05C227.375 265.2 226.525 263.925 226.1 263.5C225.25 263.075 224.825 263.5 224.825 264.35Z" fill="#D4ECFF"/>
    <path d="M221 246.925V234.6H249.05L258.825 229.075C260.95 227.8 264.775 227.8 267.325 229.5L276.25 234.6H304.3V247.35C304.3 248.2 303.875 249.05 303.025 249.475L266.9 270.3C264.775 271.575 260.95 271.575 258.4 269.875L223.55 249.9C221.425 249.05 220.575 247.775 221 246.925Z" fill="#008B8B"/>
    <path d="M262.225 227.8C263.925 227.8 265.625 228.225 266.9 229.075L275.825 234.175H303.875V246.925C303.875 247.775 303.45 248.625 302.6 249.05L266.475 269.875C265.2 270.3 263.925 270.725 262.65 270.725V227.8H262.225Z" fill="#00B58B"/>
    <path d="M300.9 234.175H303.875V246.925C303.875 247.775 303.45 248.625 302.6 249.05L300.9 249.9V234.175Z" fill="#111111"/>
    <path d="M266.05 270.3C264.35 271.15 261.375 271.15 259.25 270.3V255.85H266.05V270.3Z" fill="#111111"/>
    <path d="M266.475 257.55L302.6 236.725C304.725 235.45 304.725 233.325 302.175 231.625L267.325 211.65C264.775 210.375 260.95 209.95 258.825 211.225L222.7 232.05C220.575 233.325 220.575 235.45 223.125 237.15L257.975 257.125C260.525 258.4 264.35 258.825 266.475 257.55Z" fill="#D4ECFF"/>
    <path d="M265.625 253.725L295.8 236.3C297.5 235.025 297.5 233.325 295.375 232.05L266.05 215.05C263.925 213.775 260.525 213.775 258.825 214.625L228.65 232.05C226.95 233.325 226.95 235.025 229.075 236.3L258.4 253.3C260.525 254.575 263.925 254.575 265.625 253.725Z" fill="#111111"/>
    <path d="M234.175 249.9C234.175 250.75 235.025 252.025 235.45 252.45C236.3 252.875 236.725 252.45 236.725 251.6C236.725 250.75 235.875 249.475 235.45 249.05C234.6 248.625 234.175 249.05 234.175 249.9Z" fill="#D4ECFF"/>
    <path d="M229.5 247.35C229.5 248.2 230.35 249.475 230.775 249.9C231.625 250.325 232.05 249.9 232.05 249.05C232.05 248.2 231.2 246.925 230.775 246.5C229.925 246.075 229.5 246.5 229.5 247.35Z" fill="#D4ECFF"/>
    <path d="M224.825 244.8C224.825 245.65 225.675 246.925 226.1 247.35C226.95 247.775 227.375 247.35 227.375 246.5C227.375 245.65 226.525 244.375 226.1 243.95C225.25 243.1 224.825 243.525 224.825 244.8Z" fill="#111111"/>
    <path d="M221 226.95V214.625H249.05L258.825 209.1C260.95 207.825 264.775 207.825 267.325 209.525L276.25 214.625H304.3V227.375C304.3 228.225 303.875 229.075 303.025 229.5L266.9 250.325C264.775 251.6 260.95 251.6 258.4 249.9L223.55 229.925C221.425 229.075 220.575 227.8 221 226.95Z" fill="#008B8B"/>
    <path d="M262.225 207.825C263.925 207.825 265.625 208.25 266.9 209.1L275.825 214.2H303.875V226.95C303.875 227.8 303.45 228.65 302.6 229.075L266.475 249.9C265.2 250.325 263.925 250.75 262.65 250.75V207.825H262.225Z" fill="#00B58B"/>
    <path d="M300.9 214.2H303.875V226.95C303.875 227.8 303.45 228.65 302.6 229.075L300.9 229.925V214.2Z" fill="#111111"/>
    <path d="M266.05 250.75C264.35 251.6 261.375 251.6 259.25 250.75V236.3H266.05V250.75Z" fill="#111111"/>
    <path d="M266.475 237.575L302.6 216.75C304.725 215.475 304.725 213.35 302.175 211.65L267.325 191.675C264.775 190.4 260.95 189.975 258.825 191.25L222.7 212.075C220.575 213.35 220.575 215.475 223.125 217.175L257.975 237.15C260.525 238.85 264.35 238.85 266.475 237.575Z" fill="#D4ECFF"/>
    <path d="M223.125 214.625L257.975 234.6C260.525 235.875 264.35 236.3 266.475 235.025L302.6 214.2C303.025 213.775 303.45 213.775 303.875 213.35C304.725 214.625 304.3 215.9 302.6 216.75L266.475 237.575C264.35 238.85 260.525 238.85 257.975 237.15L223.125 217.175C221 215.9 220.575 214.625 221.425 213.35C221.425 213.775 222.275 214.2 223.125 214.625Z" fill="white"/>
    <path d="M234.175 229.925C234.175 230.775 235.025 232.05 235.45 232.475C236.3 232.9 236.725 232.475 236.725 231.625C236.725 230.775 235.875 229.5 235.45 229.075C234.6 228.65 234.175 229.075 234.175 229.925Z" fill="#111111"/>
    <path d="M229.5 227.375C229.5 228.225 230.35 229.5 230.775 229.925C231.625 230.35 232.05 229.925 232.05 229.075C232.05 228.225 231.2 226.95 230.775 226.525C229.925 226.1 229.5 226.525 229.5 227.375Z" fill="#111111"/>
    <path d="M224.825 224.825C224.825 225.675 225.675 226.95 226.1 227.375C226.95 227.8 227.375 227.375 227.375 226.525C227.375 225.675 226.525 224.4 226.1 223.975C225.25 223.55 224.825 223.975 224.825 224.825Z" fill="#D4ECFF"/>
    <path d="M264.35 224.4L281.35 214.625C282.2 214.2 282.2 212.925 280.925 212.5L264.775 203.15C263.5 202.3 261.8 202.3 260.525 203.15L243.525 212.925C242.675 213.35 242.675 214.625 243.95 215.05L260.1 224.4C261.375 225.25 263.075 225.25 264.35 224.4Z" fill="#00B58B"/>
    <path d="M262.65 216.325L264.775 215.05V214.625L262.65 213.35H262.225L260.1 214.625V215.05L262.225 216.325H262.65Z" fill="#D4ECFF"/>
    <path d="M281.35 215.05C280.925 214.625 280.925 214.625 281.35 215.05L264.775 205.7C263.5 204.85 261.8 204.85 260.525 205.7L243.525 215.475C242.675 214.625 242.675 213.775 243.525 213.35L260.525 203.575C261.375 203.15 263.5 203.15 264.775 203.575L280.925 212.925C282.2 213.35 282.2 214.2 281.35 215.05Z" fill="#396CAA"/>
    <path d="M269.45 260.525C269.45 261.375 269.875 261.375 270.3 260.95C270.725 260.525 271.15 259.675 271.15 259.25C271.15 258.4 270.725 258.4 270.3 258.825C270.3 258.825 269.45 259.675 269.45 260.525Z" fill="#D4ECFF"/>
    <path d="M272.85 258.4C272.85 259.25 273.275 259.25 273.7 258.825C274.125 258.4 274.55 257.55 274.55 257.125C274.55 256.275 274.125 256.275 273.7 256.7C273.275 257.125 272.85 257.975 272.85 258.4Z" fill="#D4ECFF"/>
    <path d="M269.45 264.35C269.45 265.2 269.875 265.2 270.3 264.775C270.725 264.35 271.15 263.5 271.15 263.075C271.15 262.225 270.725 262.225 270.3 262.65C270.3 262.65 269.45 263.5 269.45 264.35Z" fill="#D4ECFF"/>
    <path d="M272.85 262.65C272.85 263.5 273.275 263.5 273.7 263.075C274.125 262.65 274.55 261.8 274.55 261.375C274.55 260.525 274.125 260.525 273.7 260.95C273.275 260.95 272.85 261.8 272.85 262.65Z" fill="#111111"/>
    <path d="M329.375 335.325L358.275 318.75C359.975 317.9 359.975 315.775 357.85 314.925L330.225 298.775C327.675 297.5 324.7 297.5 323 298.35L294.1 314.925C292.4 315.775 292.4 317.9 294.525 318.75L322.15 334.9C324.275 336.175 327.675 336.6 329.375 335.325Z" fill="#B2D3EA"/>
    <path d="M284.325 302.6V290.275H312.375L322.15 284.75C324.275 283.475 328.1 283.475 330.65 285.175L339.575 290.275H367.625V303.025C367.625 303.875 367.2 304.725 366.35 305.15L330.225 325.975C328.1 327.25 324.275 327.25 321.725 325.55L286.875 305.575C285.175 304.725 284.325 303.45 284.325 302.6Z" fill="#008B8B"/>
    <path d="M325.975 283.475C327.675 283.475 329.375 283.9 330.65 284.75L339.575 289.85H367.625V302.6C367.625 303.45 367.2 304.3 366.35 304.725L330.225 325.55C328.95 325.975 327.675 326.4 326.4 326.4V283.475H325.975Z" fill="#00B58B"/>
    <path d="M364.65 289.85H367.625V302.6C367.625 303.45 367.2 304.3 366.35 304.725L364.65 306V289.85Z" fill="#111111"/>
    <path d="M329.375 325.975C327.675 326.825 324.7 326.825 322.575 325.975V311.525H329.375V325.975Z" fill="#111111"/>
    <path d="M330.225 313.225L366.35 292.4C368.475 291.125 368.475 289 365.925 287.3L331.075 267.325C328.525 266.05 324.7 265.625 322.575 266.9L286.45 287.725C284.325 289 284.325 291.125 286.875 292.825L321.725 312.8C323.85 314.075 327.675 314.5 330.225 313.225Z" fill="#D4ECFF"/>
    <path d="M329.375 309.4L359.55 291.975C361.25 290.7 361.25 289 359.125 287.725L329.8 270.725C327.675 269.45 324.275 269.45 322.575 270.3L292.4 287.725C290.7 289 290.7 290.7 292.825 291.975L322.15 308.975C324.275 310.25 327.675 310.25 329.375 309.4Z" fill="#111111"/>
    <path d="M297.925 305.575C297.925 306.425 298.775 307.7 299.2 308.125C300.05 308.55 300.475 308.125 300.475 307.275C300.475 306.425 299.625 305.15 299.2 304.725C298.35 304.3 297.925 304.725 297.925 305.575Z" fill="#D4ECFF"/>
    <path d="M293.25 303.025C293.25 303.875 294.1 305.15 294.525 305.575C295.375 306 295.8 305.575 295.8 304.725C295.8 303.875 294.95 302.6 294.525 302.175C293.675 301.75 293.25 302.175 293.25 303.025Z" fill="#111111"/>
    <path d="M288.575 300.475C288.575 301.325 289.425 302.6 289.85 303.025C290.7 303.45 291.125 303.025 291.125 302.175C291.125 301.325 290.275 300.05 289.85 299.625C289 298.775 288.575 299.2 288.575 300.475Z" fill="#D4ECFF"/>
    <path d="M284.325 282.625V270.3H312.375L322.15 264.775C324.275 263.5 328.1 263.5 330.65 265.2L339.575 270.3H367.625V283.05C367.625 283.9 367.2 284.75 366.35 285.175L330.225 306C328.1 307.275 324.275 307.275 321.725 305.575L286.875 285.6C285.175 284.75 284.325 283.475 284.325 282.625Z" fill="#008B8B"/>
    <path d="M325.975 263.5C327.675 263.5 329.375 263.925 330.65 264.775L339.575 269.875H367.625V282.625C367.625 283.475 367.2 284.325 366.35 284.75L330.225 306C328.95 306.425 327.675 306.85 326.4 306.85V263.5H325.975Z" fill="#00B58B"/>
    <path d="M364.65 269.875H367.625V282.625C367.625 283.475 367.2 284.325 366.35 284.75L364.65 285.6V269.875Z" fill="#111111"/>
    <path d="M329.375 306.425C327.675 307.275 324.7 307.275 322.575 306.425V291.975H329.375V306.425Z" fill="#111111"/>
    <path d="M330.225 293.25L366.35 272.425C368.475 271.15 368.475 269.025 365.925 267.325L331.075 247.35C328.525 246.075 324.7 245.65 322.575 246.925L286.025 267.75C283.9 269.025 283.9 271.15 286.45 272.85L321.3 292.825C323.85 294.525 327.675 294.525 330.225 293.25Z" fill="#D4ECFF"/>
    <path d="M329.375 289.425L359.55 272C361.25 270.725 361.25 269.025 359.125 267.75L329.8 250.75C327.675 249.475 324.275 249.475 322.575 250.325L292.4 267.75C290.7 269.025 290.7 270.725 292.825 272L322.15 289C324.275 290.275 327.675 290.7 329.375 289.425Z" fill="#111111"/>
    <path d="M297.925 285.6C297.925 286.45 298.775 287.725 299.2 288.15C300.05 288.575 300.475 288.15 300.475 287.3C300.475 286.45 299.625 285.175 299.2 284.75C298.35 284.325 297.925 284.75 297.925 285.6Z" fill="#111111"/>
    <path d="M293.25 283.05C293.25 283.9 294.1 285.175 294.525 285.6C295.375 286.025 295.8 285.6 295.8 284.75C295.8 283.9 294.95 282.625 294.525 282.2C293.675 281.775 293.25 282.2 293.25 283.05Z" fill="#111111"/>
    <path d="M288.575 280.5C288.575 281.35 289.425 282.625 289.85 283.05C290.7 283.475 291.125 283.05 291.125 282.2C291.125 281.35 290.275 280.075 289.85 279.65C289 279.225 288.575 279.65 288.575 280.5Z" fill="#D4ECFF"/>
    <path d="M284.325 262.65V250.325H312.375L322.15 244.8C324.275 243.525 328.1 243.525 330.65 245.225L339.575 250.325H367.625V263.075C367.625 263.925 367.2 264.775 366.35 265.2L330.225 286.025C328.1 287.3 324.275 287.3 321.725 285.6L286.875 265.625C285.175 264.775 284.325 263.5 284.325 262.65Z" fill="#008B8B"/>
    <path d="M325.975 243.525C327.675 243.525 329.375 243.95 330.65 244.8L339.575 249.9H367.625V262.65C367.625 263.5 367.2 264.35 366.35 264.775L330.225 285.6C328.95 286.025 327.675 286.45 326.4 286.45V243.525H325.975Z" fill="#00B58B"/>
    <path d="M364.65 250.325H367.625V263.075C367.625 263.925 367.2 264.775 366.35 265.2L364.65 266.05V250.325Z" fill="#111111"/>
    <path d="M329.375 286.45C327.675 287.3 324.7 287.3 322.575 286.45V272H329.375V286.45Z" fill="#111111"/>
    <path d="M330.225 273.275L366.35 252.45C368.475 251.175 368.475 249.05 365.925 247.35L331.075 227.375C328.525 226.1 324.7 225.675 322.575 226.95L286.45 247.775C284.325 249.05 284.325 251.175 286.875 252.875L321.725 272.85C323.85 274.55 327.675 274.55 330.225 273.275Z" fill="#D4ECFF"/>
    <path d="M286.45 250.325L321.3 270.3C323.85 271.575 327.675 272 329.8 270.725L365.925 249.9C366.35 249.475 366.775 249.475 367.2 249.05C368.05 250.325 367.625 251.6 365.925 252.45L329.8 273.275C327.675 274.55 323.85 274.55 321.3 272.85L286.45 252.875C284.325 251.6 283.9 250.325 284.75 249.05C285.175 249.475 285.6 249.9 286.45 250.325Z" fill="white"/>
    <path d="M297.925 266.05C297.925 266.9 298.775 268.175 299.2 268.6C300.05 269.025 300.475 268.6 300.475 267.75C300.475 266.9 299.625 265.625 299.2 265.2C298.35 264.775 297.925 264.775 297.925 266.05Z" fill="#D4ECFF"/>
    <path d="M293.25 263.075C293.25 263.925 294.1 265.2 294.525 265.625C295.375 266.05 295.8 265.625 295.8 264.775C295.8 263.925 294.95 262.65 294.525 262.225C293.675 261.8 293.25 262.225 293.25 263.075Z" fill="#D4ECFF"/>
    <path d="M288.575 260.525C288.575 261.375 289.425 262.65 289.85 263.075C290.7 263.5 291.125 263.075 291.125 262.225C291.125 261.375 290.275 260.1 289.85 259.675C289 259.25 288.575 259.675 288.575 260.525Z" fill="#111111"/>
    <path d="M328.1 260.525L345.1 250.75C345.95 250.325 345.95 249.05 344.675 248.625L328.525 239.275C327.25 238.425 325.55 238.425 324.275 239.275L307.275 249.05C306.425 249.475 306.425 250.75 307.7 251.175L323.85 260.525C325.125 260.95 326.825 260.95 328.1 260.525Z" fill="#00B58B"/>
    <path d="M326.4 252.45L328.525 251.175V250.75L326.4 249.475H325.975L323.425 250.75V251.175L325.55 252.45C325.975 252.45 325.975 252.45 326.4 252.45Z" fill="#D4ECFF"/>
    <path d="M344.675 250.75L328.1 241.4C326.825 240.55 325.125 240.55 323.85 241.4L306.85 251.175C306 250.325 306 249.475 306.85 249.05L323.85 239.275C324.7 238.85 326.825 238.85 328.1 239.275L344.25 248.625C345.525 249.05 345.95 249.9 344.675 250.75Z" fill="#396CAA"/>
    <path d="M332.775 276.675C332.775 277.525 333.2 277.525 333.625 277.1C334.05 276.675 334.475 275.825 334.475 275.4C334.475 274.55 334.05 274.55 333.625 274.975C333.2 274.975 332.775 275.825 332.775 276.675Z" fill="#D4ECFF"/>
    <path d="M336.175 274.55C336.175 275.4 336.6 275.4 337.025 274.975C337.45 274.55 337.875 273.7 337.875 273.275C337.875 272.85 337.45 272.425 337.025 272.85C336.6 273.275 336.175 274.125 336.175 274.55Z" fill="#D4ECFF"/>
    <path d="M332.775 280.5C332.775 281.35 333.2 281.35 333.625 280.925C334.05 280.5 334.475 279.65 334.475 279.225C334.475 278.375 334.05 278.375 333.625 278.8C333.2 278.8 332.775 279.65 332.775 280.5Z" fill="#D4ECFF"/>
    <path d="M336.175 278.8C336.175 279.65 336.6 279.65 337.025 279.225C337.45 278.8 337.875 277.95 337.875 277.525C337.875 276.675 337.45 276.675 337.025 277.1C336.6 277.1 336.175 277.95 336.175 278.8Z" fill="#111111"/>
    <path d="M332.775 296.65C332.775 297.5 333.2 297.5 333.625 297.075C334.05 296.65 334.475 295.8 334.475 295.375C334.475 294.525 334.05 294.525 333.625 294.95C333.2 294.95 332.775 295.8 332.775 296.65Z" fill="#111111"/>
    <path d="M336.175 294.525C336.175 295.375 336.6 295.375 337.025 294.95C337.45 294.525 337.875 293.675 337.875 293.25C337.875 292.4 337.45 292.4 337.025 292.825C336.6 293.25 336.175 294.1 336.175 294.525Z" fill="#D4ECFF"/>
    <path d="M332.775 300.475C332.775 301.325 333.2 301.325 333.625 300.9C334.05 300.475 334.475 299.625 334.475 299.2C334.475 298.35 334.05 298.35 333.625 298.775C333.2 298.775 332.775 299.625 332.775 300.475Z" fill="#111111"/>
    <path d="M336.175 298.35C336.175 299.2 336.6 299.2 337.025 298.775C337.45 298.35 337.875 297.5 337.875 297.075C337.875 296.225 337.45 296.225 337.025 296.65C336.6 297.075 336.175 297.925 336.175 298.35Z" fill="#D4ECFF"/>
    <path d="M332.775 316.2C332.775 317.05 333.2 317.05 333.625 316.625C334.05 316.2 334.475 315.35 334.475 314.925C334.475 314.075 334.05 314.075 333.625 314.5C333.2 314.925 332.775 315.775 332.775 316.2Z" fill="#D4ECFF"/>
    <path d="M336.175 314.5C336.175 315.35 336.6 315.35 337.025 314.925C337.45 314.5 337.875 313.65 337.875 313.225C337.875 312.375 337.45 312.375 337.025 312.8C336.6 313.225 336.175 313.65 336.175 314.5Z" fill="#111111"/>
    <path d="M332.775 320.45C332.775 321.3 333.2 321.3 333.625 320.875C334.05 320.45 334.475 319.6 334.475 319.175C334.475 318.325 334.05 318.325 333.625 318.75C333.2 318.75 332.775 319.6 332.775 320.45Z" fill="#D4ECFF"/>
    <path d="M336.175 318.325C336.175 319.175 336.6 319.175 337.025 318.75C337.45 318.325 337.875 317.475 337.875 317.05C337.875 316.2 337.45 316.2 337.025 316.625C336.6 317.05 336.175 317.9 336.175 318.325Z" fill="#D4ECFF"/>
    <path d="M331.925 213.35L334.05 212.5L332.35 210.8L331.925 213.35Z" fill="#111111"/>
    <path d="M330.65 187.85L332.775 187V187.85H330.65Z" fill="#111111"/>
    <path d="M339.15 207.4L341.7 206.55L337.875 202.725L339.15 207.4Z" fill="#111111"/>
    <path d="M333.625 212.075L324.7 206.975C324.275 206.55 323.85 206.125 324.275 205.275L326.4 195.075L337.025 201.45L334.9 211.65C334.475 212.5 334.05 212.5 333.625 212.075Z" fill="#111111"/>
    <path d="M332.775 187L320.45 193.375C320.025 193.8 320.025 194.65 320.875 195.075L331.075 201.025L341.275 206.975C341.7 207.4 342.55 206.55 342.125 206.125L334.9 188.7C334.05 187 333.2 186.575 332.775 187Z" fill="#111111"/>
    <path d="M331.075 213.35L322.15 208.25C321.725 207.825 321.3 207.4 321.725 206.55L323.85 196.35L334.475 202.725L332.35 212.5C331.925 213.35 331.5 213.35 331.075 213.35Z" fill="#D4ECFF"/>
    <path d="M330.65 187.85L318.325 194.225C317.9 194.65 317.9 195.5 318.75 195.925L328.95 201.875L339.15 207.825C339.575 208.25 340.425 207.4 340 206.975L332.775 189.55C331.925 188.275 331.075 187.85 330.65 187.85Z" fill="#D4ECFF"/>
    <path d="M269.025 177.225L271.15 176.375L269.45 174.675L269.025 177.225Z" fill="#111111"/>
    <path d="M267.75 151.725L269.875 150.875V151.725H267.75Z" fill="#111111"/>
    <path d="M276.25 171.275L278.375 170.425L274.975 166.6L276.25 171.275Z" fill="#111111"/>
    <path d="M270.725 176.375L261.8 171.275C261.375 170.85 260.95 170.425 261.375 169.575L263.5 159.375L274.125 165.75L272 175.95C271.575 176.375 271.15 176.375 270.725 176.375Z" fill="#111111"/>
    <path d="M269.875 150.875L257.55 157.25C257.125 157.675 257.125 158.525 257.975 158.95L268.175 164.9L278.375 170.85C278.8 171.275 279.65 170.425 279.225 170L272 152.575C271.15 150.875 270.3 150.45 269.875 150.875Z" fill="#111111"/>
    <path d="M268.175 177.225L259.25 171.7C258.825 171.275 258.4 170.85 258.825 170L260.95 159.8L271.575 166.175L269.45 176.375C269.025 177.225 268.6 177.225 268.175 177.225Z" fill="#D4ECFF"/>
    <path d="M267.75 151.725L255.425 158.1C255 158.525 255 159.375 255.85 159.8L266.05 165.75L276.25 171.7C276.675 172.125 277.525 171.275 277.1 170.85L269.875 153.425C269.025 152.15 268.175 151.725 267.75 151.725Z" fill="#D4ECFF"/>
    <path d="M50.575 319.6L119 280.5C124.525 277.525 133.875 277.95 139.825 281.35L279.65 362.525C286.025 365.925 286.45 371.45 280.925 374.425L212.925 413.525C207.4 416.5 198.05 416.075 192.1 412.675L52.275 331.925C45.9 328.1 45.475 322.575 50.575 319.6Z" fill="#59B58B"/>
    <path d="M215.475 400.775L285.175 360.825C288.15 359.125 289.85 356.575 289.85 354.45V342.55L287.725 346.375C286.45 345.1 285.175 343.825 283.475 342.975L142.8 260.95C134.725 256.275 122.825 255.85 116.025 259.675L46.325 299.625C45.475 300.05 45.05 300.475 44.2 300.9L41.65 297.5V308.975C41.65 311.95 43.775 315.35 48.025 317.9L188.7 399.5C196.775 404.175 208.675 404.6 215.475 400.775Z" fill="#008B8B"/>
    <path d="M46.325 290.7L116.025 250.75C122.825 246.925 135.15 247.35 142.8 252.025L283.475 333.625C291.55 338.3 292.4 345.1 285.175 349.35L215.475 389.3C208.675 393.125 196.35 392.7 188.7 388.025L48.025 306.425C40.375 301.75 39.525 294.95 46.325 290.7Z" fill="#D4ECFF"/>
    <path d="M285.6 348.925L215.9 388.875C209.1 392.7 196.775 392.275 189.125 387.6L48.025 306.425C44.2 304.3 42.075 301.325 41.65 298.775C41.225 302.175 43.35 305.575 48.025 308.55L188.7 390.15C196.775 394.825 208.675 395.25 215.475 391.425L285.175 351.475C288.575 349.35 290.275 346.375 289.85 343.825C289.425 345.525 288.15 347.65 285.6 348.925Z" fill="white"/>
    <path d="M50.575 292.4L118.575 253.3C124.1 250.325 133.45 250.75 139.4 254.15L279.225 335.325C285.6 338.725 286.025 344.25 280.5 347.225L212.5 386.325C206.975 389.3 197.625 388.875 191.675 385.475L52.275 304.725C45.9 300.9 45.475 295.8 50.575 292.4Z" fill="white"/>
    <path d="M301.325 122.825C301.325 123.675 300.9 123.675 300.475 123.25C300.05 122.825 299.625 121.975 299.625 121.55C299.625 120.7 300.05 120.7 300.475 121.125C300.9 121.125 301.325 121.975 301.325 122.825Z" fill="#D4ECFF"/>
    <path d="M315.775 130.475C315.775 131.325 315.35 131.325 314.925 130.9C314.5 130.475 314.075 129.625 314.075 129.2C314.075 128.35 314.5 128.35 314.925 128.775C315.35 129.2 315.775 130.05 315.775 130.475Z" fill="#D4ECFF"/>
    <path d="M160.65 306.85L135.575 292.4C134.725 291.975 134.725 291.125 136 290.275C137.275 289.85 138.55 289.425 139.825 290.275L164.9 304.725C165.75 305.15 165.75 306 164.475 306.85C163.2 307.275 161.5 307.275 160.65 306.85Z" fill="#B2D3EA"/>
    <path d="M136.425 301.75L127.5 296.65C126.65 296.225 126.65 295.375 127.925 294.525C129.2 294.1 130.475 293.675 131.75 294.525L140.675 299.625C141.525 300.05 141.525 300.9 140.25 301.75C138.975 302.175 137.275 302.175 136.425 301.75Z" fill="#B2D3EA"/>
    <path d="M151.725 310.675L142.8 305.575C141.95 305.15 141.95 304.3 143.225 303.45C144.5 303.025 145.775 302.6 147.05 303.45L155.975 308.55C156.825 308.975 156.825 309.825 155.55 310.675C154.275 311.1 152.575 311.1 151.725 310.675Z" fill="#00B58B"/>
    <path d="M182.325 328.1L158.1 314.075C157.25 313.65 157.25 312.8 158.525 311.95C159.8 311.525 161.075 311.1 162.35 311.95L186.575 325.975C187.425 326.4 187.425 327.25 186.15 328.1C184.875 328.525 183.175 328.525 182.325 328.1Z" fill="#B2D3EA"/>
    <path d="M151.3 319.175L119.85 300.9C119 300.475 119 299.625 120.275 298.775C121.55 298.35 122.825 297.925 124.1 298.775L155.55 317.05C156.4 317.475 156.4 318.325 155.125 319.175C153.85 319.6 152.15 319.6 151.3 319.175Z" fill="#B2D3EA"/>
    <path d="M189.125 350.2L112.2 305.575C111.35 305.15 111.35 304.3 112.625 303.45C113.9 303.025 115.175 302.6 116.45 303.45L193.375 348.075C194.225 348.5 194.225 349.35 192.95 350.2C191.675 350.625 190.4 350.625 189.125 350.2Z" fill="#00B58B"/>
    <path d="M211.65 336.6L167.45 311.1C166.6 310.675 166.6 309.825 167.875 308.975C169.15 308.55 170.425 308.125 171.7 308.975L215.9 334.475C216.75 334.9 216.75 335.75 215.475 336.6C214.2 337.025 212.925 337.025 211.65 336.6Z" fill="#B2D3EA"/>
    <path d="M219.725 185.725L221.85 184.45V184.025L219.725 182.75H219.3L216.75 184.025V184.45L218.875 185.725C219.3 185.725 219.725 185.725 219.725 185.725Z" fill="#396CAA"/>
    <path d="M214.2 188.7L216.325 187.425V187L214.2 185.725H213.775L211.65 187V187.425L213.775 188.7H214.2Z" fill="#396CAA"/>
    <path d="M209.1 191.675L211.225 190.4V189.975L209.1 188.7H208.675L206.55 189.975V190.4L208.675 191.675C208.675 191.675 208.675 191.675 209.1 191.675Z" fill="#396CAA"/>
    <path d="M188.7 167.025L191.25 165.75V165.325L189.125 164.05H188.7L186.575 165.325V165.75L188.7 167.025C188.275 167.025 188.7 167.025 188.7 167.025Z" fill="#396CAA"/>
    <path d="M183.6 170L185.725 168.725V168.3L183.6 167.025H183.175L181.05 168.3V168.725L182.75 170C183.175 170.425 183.175 170.425 183.6 170Z" fill="#396CAA"/>
    <path d="M178.075 173.4L180.2 172.125V171.7L178.075 170.425H177.65L175.525 171.7V172.125L177.65 173.4H178.075Z" fill="#396CAA"/>
</svg>
