<svg width="96" height="96" viewBox="0 0 96 96" fill="none" xmlns="http://www.w3.org/2000/svg">
<path fill-rule="evenodd" clip-rule="evenodd" d="M23.994 76.503C21.5265 76.503 19.4999 78.5296 19.4999 80.9971C19.4999 83.4646 21.5265 85.5059 23.994 85.5059C26.4615 85.5059 28.5028 83.4646 28.5027 80.9971C28.5027 78.5296 26.4615 76.503 23.994 76.503ZM25.4998 80.9971C25.4998 80.1509 24.8402 79.5029 23.994 79.503C23.1478 79.5029 22.4998 80.1509 22.4998 80.9971C22.4998 81.8433 23.1478 82.5029 23.994 82.5029C24.8402 82.5029 25.4998 81.8433 25.4998 80.9971Z" fill="#008B8B"/>
<path fill-rule="evenodd" clip-rule="evenodd" d="M23.994 55.4971C21.5265 55.4971 19.4999 57.5354 19.4999 60.0029C19.4999 62.4704 21.5265 64.5 23.994 64.5C26.4615 64.5 28.5027 62.4704 28.5027 60.0029C28.5028 57.5354 26.4615 55.4971 23.994 55.4971ZM25.4998 60.0029C25.4998 59.1567 24.8402 58.4971 23.994 58.4971C23.1478 58.4971 22.4998 59.1567 22.4998 60.0029C22.4998 60.8491 23.1478 61.4971 23.994 61.4971C24.8402 61.4971 25.4998 60.8491 25.4998 60.0029Z" fill="#008B8B"/>
<path d="M41.9998 58.4971C41.1714 58.5004 40.5025 59.1745 40.5057 60.0029C40.5089 60.8268 41.176 61.4939 41.9998 61.4971H74.9969C75.8253 61.5004 76.4995 60.8314 76.5028 60.0029C76.5061 59.1699 75.8299 58.4938 74.9969 58.4971H41.9998Z" fill="#008B8B"/>
<path d="M41.9998 79.503C41.176 79.5061 40.5089 80.1733 40.5057 80.9971C40.5024 81.8255 41.1714 82.4997 41.9998 82.5029H74.9969C75.8299 82.5062 76.506 81.8301 76.5028 80.9971C76.4995 80.1687 75.8253 79.4997 74.9969 79.503H41.9998Z" fill="#008B8B"/>
<path fill-rule="evenodd" clip-rule="evenodd" d="M20.1973 25.5674C19.724 25.522 19.2464 25.4999 18.7677 25.4999C10.0795 25.4999 3.00006 32.5654 3.00006 41.247C3.00006 46.8972 6.00841 51.8503 10.4971 54.6269V66.0058C10.4971 67.8014 11.3149 69.3972 12.5772 70.497C11.3149 71.5998 10.4971 73.2014 10.4971 74.997V86.9999C10.4971 90.2979 13.1991 92.9999 16.4971 92.9999H79.4913C82.7893 92.9999 85.4942 90.2979 85.4942 86.9999V74.997C85.4942 73.2014 84.6765 71.5998 83.4141 70.497C83.4558 70.4608 83.4996 70.427 83.5435 70.3933C83.6083 70.3435 83.673 70.2937 83.7305 70.2362C84.8186 69.1509 85.4941 67.6547 85.4941 66.0057V54.6298C89.9885 51.8532 93 46.9013 93 41.2469C93 32.5654 85.9206 25.4999 77.2324 25.4999C76.7534 25.4999 76.2789 25.5225 75.8057 25.5673C73.0373 12.4327 61.4355 2.99997 48 3C34.5644 3.00003 22.9655 12.4325 20.1973 25.5674ZM66.7237 29.5078C68.5012 27.9197 70.6035 26.7748 72.8585 26.124C70.358 14.3886 60.0156 6.00294 48 6.00294C35.9844 6.00294 25.642 14.3883 23.1416 26.124C25.3976 26.7746 27.4981 27.9191 29.2764 29.5078C29.8938 30.0584 29.9488 31.0046 29.3994 31.6231C28.8478 32.2478 27.8925 32.3034 27.2724 31.7461C24.9319 29.6551 21.9082 28.5029 18.7676 28.5029C11.6991 28.5029 6.00291 34.1886 6.00297 41.2471C6.00291 45.4224 8.00468 49.116 11.0977 51.4424C12.0659 49.4193 14.1172 48 16.4971 48H79.4912C81.8712 48 83.9254 49.4192 84.8935 51.4424C87.9911 49.1171 90 45.4267 90 41.2471C90 34.1886 84.3009 28.5029 77.2324 28.5029C74.0919 28.5029 71.071 29.6551 68.7305 31.7461C68.1104 32.3032 67.1551 32.2479 66.6035 31.6231C66.0537 31.0054 66.1074 30.0594 66.7237 29.5078ZM34.5028 68.9942V51.0029H16.4967C15.0197 51.0029 13.8325 52.0057 13.5582 53.3877C13.5196 53.5851 13.4969 53.7921 13.4969 54.003V66.0059C13.4969 67.6938 14.809 68.9942 16.4969 68.9942H34.5028ZM79.491 51.0029H37.5027V68.9942H79.491C81.179 68.9942 82.4911 67.6938 82.4911 66.0059V54.003C82.4911 52.315 81.179 51.0029 79.491 51.0029ZM34.5028 71.9942H16.4969C14.809 71.9942 13.4969 73.3092 13.4969 74.9971V87C13.4969 88.688 14.809 90 16.4969 90H34.5028V71.9942ZM79.491 71.9942H37.5027V90H79.491C81.179 90 82.4911 88.688 82.4911 87V74.9971C82.4911 73.3092 81.179 71.9942 79.491 71.9942Z" fill="#111111"/>
</svg>
