<svg width="96" height="96" viewBox="0 0 96 96" fill="none" xmlns="http://www.w3.org/2000/svg">
<g clip-path="url(#clip0_1004_167)">
<path d="M76 72C79.713 72 83.274 70.525 85.8995 67.8995C88.525 65.274 90 61.7131 90 58C90 54.287 88.525 50.7261 85.8995 48.1005C83.274 45.475 79.713 44 76 44H72C73.588 36.928 70.86 29.628 64.848 24.852C58.836 20.08 50.448 18.552 42.848 20.852C35.248 23.152 29.588 28.928 28 36C19.204 35.648 11.38 41.304 9.336 49.492C7.288 57.68 11.592 66.108 19.6 69.6" stroke="black" stroke-width="3" stroke-linecap="round" stroke-linejoin="round"/>
<path d="M60 60H36C33.7909 60 32 61.7909 32 64V76C32 78.2091 33.7909 80 36 80H60C62.2091 80 64 78.2091 64 76V64C64 61.7909 62.2091 60 60 60Z" stroke="#008B8B" stroke-width="3" stroke-linecap="round" stroke-linejoin="round"/>
<path d="M40 60V52C39.9992 50.2359 40.5816 48.521 41.6564 47.1222C42.7312 45.7233 44.2383 44.719 45.9431 44.2654C47.6479 43.8118 49.4548 43.9345 51.0826 44.6142C52.7105 45.294 54.068 46.4927 54.944 48.0239" stroke="#008B8B" stroke-width="3" stroke-linecap="round" stroke-linejoin="round"/>
</g>
<defs>
<clipPath id="clip0_1004_167">
<rect width="96" height="96" fill="white"/>
</clipPath>
</defs>
</svg>
