<svg width="75" height="74" viewBox="0 0 75 74" fill="none" xmlns="http://www.w3.org/2000/svg">
    <g clip-path="url(#clip0_343_351)">
        <path d="M59.3292 37C59.3292 48.7455 49.8026 58.2721 38.0571 58.2721C26.3106 58.2721 16.8765 48.7455 16.8765 37.0925C16.8765 25.3469 26.4031 15.9129 38.0571 15.9129C49.8026 15.8204 59.3272 25.2544 59.3272 37H59.3292Z" stroke="#111111" stroke-width="2"/>
        <path d="M38.0561 22.8494L50.2642 29.8794L37.9636 37L25.7556 29.971L38.0561 22.8494Z" stroke="#008B8B" stroke-width="2" stroke-linejoin="round"/>
        <path d="M50.2642 29.8785L50.3567 44.029L38.0561 51.1506L37.9636 37L50.2642 29.8785Z" stroke="#008B8B" stroke-width="2" stroke-linejoin="round"/>
        <path d="M37.9636 37L38.0561 51.1505L25.8481 44.214L25.7556 29.9709L37.9636 37Z" stroke="#008B8B" stroke-width="2" stroke-linejoin="round"/>
        <path d="M44.0676 7.49739L38.5186 1.94739L32.9686 7.49739M38.5186 3.05739V12.3979M21.4081 11.9354H13.639L13.5465 19.7054M14.38 12.6754L20.9465 19.3354M8.55348 31.08L3.00348 36.5375L8.55348 42.0875M4.11348 36.5375H13.454M12.9925 53.6481V61.5096H20.7615M13.7315 60.6771L20.3915 54.1106M54.7042 62.1571H62.5657V54.2956M61.7332 61.3246L55.1667 54.7581M67.5597 43.0115L73.1097 37.4625L67.5597 31.9125M71.9987 37.4625H62.6582M32.1371 66.5027L37.5946 72.0526L43.1436 66.5027M37.5936 70.9427V61.6021M63.2132 20.352V12.5829H55.3517M62.3807 13.3229L55.8142 19.9829" stroke="#111111" stroke-width="2"/>
    </g>
    <defs>
        <clipPath id="clip0_343_351">
            <rect width="74" height="74" fill="white" transform="translate(0.666626)"/>
        </clipPath>
    </defs>
</svg>
