<svg width="96" height="96" viewBox="0 0 96 96" fill="none" xmlns="http://www.w3.org/2000/svg">
<g clip-path="url(#clip0_1003_156)">
<path d="M48 27.5277C48.8255 27.5277 49.4985 26.8548 49.4985 26.0292L49.4977 22.0039L49.4915 22.0055L49.4985 21.9986L49.4977 22.0039C49.9118 21.893 50.3189 21.741 50.6917 21.5546C52.0792 20.8539 53.0643 19.6329 53.0643 17.9887C53.0643 16.9759 52.7729 16.1781 52.3151 15.5676C51.7531 14.8045 50.9761 14.3744 50.213 14.1454C49.3528 13.8887 48.6591 13.8957 47.9653 13.9095C47.5144 13.9165 47.0496 13.9234 46.6403 13.7985H46.6333C46.4321 13.7361 46.224 13.639 46.0991 13.4933H46.0922C45.9812 13.3684 45.9118 13.1603 45.9118 12.8204C45.9118 12.4527 46.2101 12.1405 46.6333 11.9254C46.9733 11.752 47.3895 11.641 47.8266 11.6063L47.9514 11.5994H47.9722H47.9931L48.0832 11.5924H48.1041H48.111C48.4648 11.5924 48.8186 11.6341 49.1377 11.7312C49.7968 11.9254 50.3518 12.3833 50.4975 13.1117C50.657 13.9234 51.4479 14.4507 52.2596 14.2911C53.0712 14.1315 53.5985 13.3407 53.4389 12.529C53.0435 10.5449 51.6491 9.3586 49.991 8.86604C49.8315 8.81748 49.665 8.77586 49.4985 8.74117V5.55689C49.4985 4.73134 48.8255 4.05841 48 4.05841C47.1744 4.05841 46.5015 4.73134 46.5015 5.55689V8.81054C46.0783 8.92154 45.676 9.07416 45.3013 9.26147C43.9139 9.96215 42.9287 11.1831 42.9287 12.8273C42.9287 13.972 43.3034 14.8392 43.8653 15.4774H43.8584C44.3995 16.0879 45.0932 16.4556 45.7731 16.6637C46.6333 16.9273 47.334 16.9134 48.0277 16.8996C48.4856 16.8926 48.9504 16.8857 49.3597 17.0106C49.5887 17.0799 49.8107 17.1909 49.9286 17.3505C50.0188 17.4754 50.0812 17.6766 50.0812 17.9887C50.0812 18.3564 49.7829 18.6686 49.3597 18.8837C49.0198 19.0571 48.6035 19.1681 48.1665 19.2028L47.9584 19.2167H47.9376C47.5699 19.2236 47.2022 19.182 46.8692 19.0779L46.7998 19.0571C46.1685 18.849 45.6413 18.405 45.5025 17.6974C45.343 16.8857 44.5521 16.3585 43.7404 16.518C42.9287 16.6776 42.4015 17.4684 42.5611 18.2801C42.9565 20.2434 44.3232 21.4228 45.9535 21.9292L46.002 21.9431C46.1685 21.9916 46.335 22.0333 46.5015 22.0679V26.0292C46.5015 26.8548 47.1744 27.5277 48 27.5277Z" fill="#008B8B"/>
<path fill-rule="evenodd" clip-rule="evenodd" d="M61.861 22.1304C63.3178 22.6299 64.7192 23.1987 66.072 23.837C68.0075 24.7597 69.839 25.8211 71.5387 27.0005L71.5525 27.0143L72.3018 27.5485L72.3087 27.5554C74.383 26.5565 76.707 25.8697 79.3155 25.5228C80.1341 25.4187 80.8834 25.9945 80.9944 26.8131C81.0082 26.9311 81.0082 27.056 81.0013 27.1739L80.0856 35.4225C80.8903 36.5602 81.6118 37.7465 82.2431 38.9536C82.8813 40.1815 83.4433 41.465 83.9081 42.797C84.8308 43.4768 85.913 43.9971 87.0715 44.3579C88.5215 44.8088 90.0546 45.0239 91.5046 45.01H91.5115C92.5937 45.0031 93.5858 45.01 94.5015 45.6413C95.445 46.2934 96.0208 47.4242 96.0208 49.4985V60.7996V61.4031L95.5907 61.8402C93.7315 63.748 90.8524 65.8639 87.1548 68.1532C83.5612 70.3801 79.1698 72.7805 74.1888 75.3126C73.606 75.8052 72.9886 76.2839 72.3434 76.7556C71.9272 77.0609 71.5109 77.3592 71.0877 77.6436L72.6833 89.3054C72.8429 90.4848 72.6486 91.8653 71.7676 93.1071C71.1016 94.0506 70.0541 94.897 68.4862 95.4866C66.9253 96.0694 65.6141 96.1041 64.5319 95.8127C63.0611 95.4173 62.0552 94.453 61.4447 93.4748L55.4022 83.8526C54.3755 84.033 53.321 84.1717 52.2388 84.2758C50.8096 84.4145 49.3944 84.4839 48 84.4839C46.6056 84.4839 45.1903 84.4145 43.7612 84.2758C42.679 84.1717 41.6245 84.033 40.5978 83.8526L34.5553 93.4748C33.9448 94.453 32.9458 95.4173 31.4681 95.8127C30.3859 96.1041 29.0747 96.0694 27.5138 95.4866C25.9459 94.897 24.8915 94.0506 24.2324 93.1071C23.3513 91.8653 23.1571 90.4848 23.3167 89.3054L24.9123 77.6367C20.5903 74.723 17.0244 71.0045 14.52 66.7449C11.9393 62.3535 10.4894 57.4002 10.4894 52.1625C10.4894 50.4489 10.642 48.7631 10.9403 47.119C10.5934 47.2369 10.2466 47.334 9.90663 47.4103C9.65689 47.7295 9.37245 48.0416 9.05333 48.3191C8.0474 49.2002 6.70154 49.8176 4.96719 49.9356C3.83639 50.0119 2.53216 49.8662 1.06142 49.4361C0.270558 49.2071 -0.187312 48.3746 0.0485601 47.5768C0.277495 46.786 1.10999 46.3281 1.90779 46.564C3.02471 46.89 3.97514 47.001 4.77294 46.9455C4.92557 46.9317 5.07125 46.9178 5.21694 46.897C4.89088 46.7305 4.59257 46.5432 4.31507 46.335C3.49646 45.7037 2.90678 44.8712 2.65009 43.9278C2.39341 42.9912 2.46278 41.9853 2.92759 41.014H2.93453C3.49646 39.8416 4.33588 39.1201 5.27937 38.7663C6.0633 38.468 6.89579 38.4333 7.68666 38.6206V38.6276C8.4359 38.801 9.15739 39.1687 9.74013 39.6821C10.6073 40.4452 11.2247 41.5413 11.3149 42.8178C11.3357 43.0953 11.3357 43.3797 11.3149 43.6711C11.4884 43.5809 11.6687 43.5323 11.856 43.5184C13.0493 39.8069 14.9987 36.359 17.5378 33.3066C21.6864 28.3394 27.4375 24.4267 34.1321 22.1304C33.147 20.0977 32.592 17.8153 32.592 15.408C32.592 11.1554 34.3194 7.29819 37.1013 4.51628C39.8832 1.73438 43.7404 0.00695801 47.9931 0.00695801C52.2457 0.00695801 56.1029 1.73438 58.8848 4.51628C61.6667 7.29819 63.3941 11.1554 63.3941 15.408C63.3941 17.8222 62.8391 20.0977 61.854 22.1373L61.861 22.1304ZM64.7955 26.5426C66.4258 27.3196 67.9867 28.2145 69.4574 29.2066H69.4991C67.7716 30.4137 66.2385 31.8775 64.8787 33.5633C64.3584 34.2084 64.4625 35.145 65.1077 35.6653C65.7529 36.1856 66.6894 36.0815 67.2097 35.4364C68.729 33.5424 70.4911 31.9815 72.5446 30.816C74.1124 29.928 75.8676 29.2482 77.8309 28.8181L76.5475 40.3342C76.4573 41.1528 77.0539 41.8951 77.8725 41.9853C78.6911 42.0755 79.4334 41.4788 79.5236 40.6602L79.5653 40.2579L79.5999 40.3203C80.2521 41.576 80.8001 42.8594 81.2372 44.1636L81.3759 44.5729L81.7159 44.8504C83.0201 45.9119 84.5671 46.6888 86.1835 47.2022H86.1905C87.9248 47.7503 89.7702 48 91.5392 47.9861H91.5462C92.122 47.9792 92.6423 47.9792 92.8018 48.0902C92.9406 48.1873 93.0308 48.5689 93.0308 49.4916V60.1752C91.3311 61.7985 88.799 63.6231 85.5939 65.6072C82.0489 67.8063 77.6713 70.1928 72.6833 72.725L72.5168 72.8082L72.392 72.9192C71.7953 73.4257 71.1918 73.9043 70.5882 74.3483C69.9916 74.7854 69.3603 75.2224 68.6874 75.6456L67.8757 76.159L68.0075 77.1094L69.728 89.7078C69.7974 90.2281 69.7141 90.8455 69.3326 91.3866C68.9857 91.8792 68.3891 92.3371 67.4525 92.6909C66.5507 93.0308 65.85 93.0586 65.3158 92.9198H65.3089C64.7053 92.7602 64.2752 92.3371 64.0046 91.9L63.9977 91.8931L57.4141 81.4037L56.866 80.5296L55.8601 80.7308C54.5697 80.9805 53.2655 81.1748 51.9751 81.2996C50.7125 81.4245 49.3875 81.4869 48.0139 81.4869C46.6403 81.4869 45.3152 81.4176 44.0595 81.2996C42.7692 81.1748 41.4649 80.9805 40.1746 80.7238L39.1687 80.5226L38.6206 81.3968L32.037 91.8861L32.0301 91.8931C31.7595 92.3232 31.3294 92.7533 30.7258 92.9129H30.7189C30.1847 93.0586 29.484 93.0239 28.5822 92.6839C27.6456 92.3301 27.049 91.8653 26.7021 91.3797C26.3206 90.8386 26.2373 90.2281 26.3067 89.7008L28.0272 77.1025L28.152 76.159L27.3473 75.6387C23.06 72.9054 19.5358 69.3395 17.1215 65.2256C14.8114 61.2991 13.5141 56.8591 13.5141 52.1555C13.5141 45.8494 15.8589 39.9942 19.848 35.2144C23.7815 30.5039 29.3106 26.8131 35.7555 24.7319C36.1717 25.28 36.6296 25.8003 37.1152 26.2859C37.4621 26.6328 37.8228 26.9658 38.2044 27.278L37.8922 27.3681C36.6851 27.7358 35.5681 28.1659 34.59 28.6516L35.915 31.3363C36.7614 30.9132 37.7257 30.5385 38.7594 30.2264C39.6959 29.9419 40.7157 29.6922 41.791 29.491C43.6919 30.3304 45.7939 30.7952 48 30.7952C50.2824 30.7952 52.4538 30.2957 54.4032 29.4077C55.4092 29.595 56.3873 29.8448 57.31 30.1431C58.3021 30.4692 59.2178 30.8577 60.0225 31.3017L61.4725 28.6932C60.4804 28.1382 59.3843 27.6734 58.2327 27.2988L57.9066 27.1947C58.2466 26.9103 58.5796 26.605 58.8917 26.2928C59.3774 25.8072 59.8352 25.2869 60.2515 24.7389C61.8124 25.2453 63.3386 25.8488 64.7955 26.5426ZM48 2.99699C51.4271 2.99699 54.5281 4.39141 56.7689 6.63219C59.0166 8.87298 60.4041 11.974 60.4041 15.4011C60.4041 18.8282 59.0097 21.9292 56.7689 24.17C54.5281 26.4177 51.4271 27.8052 48 27.8052C44.5729 27.8052 41.4719 26.4108 39.2311 24.17C36.9834 21.9292 35.5959 18.8282 35.5959 15.4011C35.5959 11.974 36.9903 8.87298 39.2311 6.63219C41.4719 4.38447 44.5729 2.99699 48 2.99699ZM8.09597 44.5937C7.92947 44.5868 7.76991 44.5729 7.61728 44.5521C7.02067 44.4619 6.52117 44.2538 6.15349 43.9694C5.8413 43.7266 5.62624 43.4352 5.543 43.1369V43.13C5.47362 42.8871 5.50831 42.5958 5.64706 42.2975H5.64012C5.82743 41.8951 6.08411 41.6592 6.3408 41.5621C6.54892 41.4858 6.78479 41.4788 7.01373 41.5343H7.0276C7.29123 41.5968 7.55485 41.7355 7.77684 41.9298C8.08209 42.2003 8.30409 42.5819 8.33184 43.012C8.35959 43.4213 8.31103 43.8792 8.17921 44.3371L8.09597 44.5937Z" fill="#111111"/>
<path fill-rule="evenodd" clip-rule="evenodd" d="M49.4977 22.0039L49.4985 21.9986L49.4915 22.0055L49.4977 22.0039Z" fill="#27AFB7"/>
<path fill-rule="evenodd" clip-rule="evenodd" d="M70.498 43.5046C71.7329 43.5046 72.8568 44.011 73.6754 44.8227L73.6823 44.8296C74.494 45.6413 75.0004 46.7652 75.0004 48.007C75.0004 49.2418 74.494 50.3726 73.6754 51.1843L73.6823 51.1912C72.8706 52.0029 71.7468 52.5093 70.498 52.5093C69.2562 52.5093 68.1255 52.0029 67.3138 51.1912C66.5021 50.3796 65.9957 49.2488 65.9957 48.007C65.9957 46.7652 66.5021 45.6344 67.3138 44.8227L67.3207 44.8296C68.1324 44.011 69.2632 43.5046 70.498 43.5046ZM70.498 46.5085C70.9212 46.5085 71.2958 46.675 71.5595 46.9386L71.5664 46.9455C71.83 47.2161 71.9965 47.5907 71.9965 48.007C71.9965 48.4232 71.83 48.8048 71.5664 49.0684H71.5595C71.2889 49.332 70.9143 49.5054 70.498 49.5054C70.0818 49.5054 69.7072 49.3389 69.4366 49.0684C69.173 48.7978 68.9996 48.4232 68.9996 48.007C68.9996 47.5907 69.1661 47.2161 69.4366 46.9455V46.9386C69.7072 46.675 70.0818 46.5085 70.498 46.5085Z" fill="#008B8B"/>
</g>
<defs>
<clipPath id="clip0_1003_156">
<rect width="96" height="96" fill="white"/>
</clipPath>
</defs>
</svg>
