<svg width="96" height="96" viewBox="0 0 96 96" fill="none" xmlns="http://www.w3.org/2000/svg">
<path d="M2.3295 34.3425L4.5 35.427V40.5C4.5 40.7955 4.5885 41.0865 4.752 41.3325L7.5 45.4545V49.5C7.5 49.7955 7.5885 50.0865 7.752 50.3325L13.608 59.1165L15.045 64.8645C15.111 65.1285 15.2475 65.3685 15.4395 65.5605L22.6305 72.7515L25.536 85.8255C25.674 86.4465 26.187 86.9115 26.817 86.9895C26.8785 86.997 26.94 87 27 87C27.5625 87 28.0845 86.6835 28.341 86.1705L35.841 71.1705C35.9775 70.8975 36.027 70.5901 35.9835 70.2871L34.4835 59.7871C34.4145 59.2996 34.11 58.878 33.6705 58.6575L27.6705 55.6575C27.5505 55.5975 27.4245 55.554 27.294 55.5285L20.3565 54.1411L16.5 49.0005V46.5H18.879L21.4395 49.0605C21.72 49.3425 22.1025 49.5 22.5 49.5H25.5C26.328 49.5 27 48.828 27 48V45.621L31.0605 41.5605C31.2255 41.3955 31.3485 41.1945 31.4235 40.974L32.9235 36.474C33.0255 36.165 33.0255 35.8335 32.9235 35.5245L31.4235 31.0245C31.3185 30.708 31.11 30.4365 30.8325 30.2505L27 27.6975V22.5C27 22.3095 26.964 22.1205 26.8935 21.942L23.8935 14.442C23.706 13.974 23.2965 13.6305 22.8015 13.53C22.308 13.4295 21.7965 13.5825 21.4395 13.938L17.19 18.1875L13.026 19.575C12.6495 19.701 12.3375 19.971 12.159 20.3265L9.7755 25.095L3.5565 22.6065C3.093 22.4235 2.571 22.479 2.1585 22.758C1.7475 23.037 1.5 23.502 1.5 24V33C1.5 33.5685 1.821 34.0875 2.3295 34.3425ZM4.5 26.2155L9.942 28.3935C10.668 28.68 11.4915 28.368 11.841 27.672L14.562 22.2285L18.4725 20.925C18.693 20.8515 18.894 20.727 19.059 20.562L21.951 17.67L24 22.788V28.5C24 29.001 24.2505 29.469 24.6675 29.748L28.7385 32.463L29.919 36L28.689 39.69L24.4395 43.9395C24.1575 44.22 24 44.6025 24 45V46.5H23.121L20.5605 43.9395C20.28 43.6575 19.8975 43.5 19.5 43.5H15C14.172 43.5 13.5 44.172 13.5 45V49.5C13.5 49.824 13.605 50.1405 13.8 50.4L18.3 56.4C18.5205 56.6955 18.843 56.898 19.206 56.97L26.5095 58.431L31.6275 60.99L32.9505 70.248L27.549 81.051L25.4655 71.676C25.404 71.397 25.2645 71.142 25.062 70.941L17.856 63.7351L16.4565 58.1385C16.4145 57.972 16.344 57.813 16.2495 57.6705L10.5 49.0455V45C10.5 44.7045 10.4115 44.4135 10.248 44.1675L7.5 40.0455V34.5C7.5 33.9315 7.179 33.4125 6.6705 33.1575L4.5 32.073V26.2155Z" fill="#111111"/>
<path d="M28.5765 21.474L30.0765 25.974C30.1725 26.2635 30.3555 26.5155 30.6 26.6985L36.6 31.1985C36.8625 31.395 37.179 31.4985 37.5 31.4985C37.6155 31.4985 37.731 31.485 37.845 31.458C38.2785 31.356 38.643 31.0665 38.8425 30.669L44.8425 18.669C44.946 18.4635 45 18.2325 45 18V13.5C45 12.8535 44.5875 12.282 43.974 12.0765L39.474 10.5765C39.321 10.5255 39.1605 10.5 39 10.5H34.5C34.2675 10.5 34.0365 10.554 33.8295 10.6575L27.8295 13.6575C27.201 13.971 26.874 14.6805 27.045 15.363L28.5765 21.474ZM34.854 13.5H38.757L42 14.5815V17.646L36.963 27.7215L32.775 24.5805L31.4565 20.6355L30.2475 15.8025L34.854 13.5Z" fill="#111111"/>
<path d="M56.1645 22.641L51.831 19.752C51.327 19.416 50.6715 19.416 50.1675 19.752L45.6675 22.752C45.45 22.8975 45.2745 23.0955 45.1575 23.3295L42.1575 29.3295C41.925 29.7945 41.9505 30.3465 42.2235 30.789C42.498 31.23 42.9795 31.5 43.5 31.5H46.0455L48.2955 33L41.1675 37.752C40.95 37.8975 40.7745 38.0955 40.6575 38.3295L39.1575 41.3295C38.946 41.7525 38.946 42.249 39.1575 42.672L40.1745 44.7045L36.4395 48.4395C36.1575 48.72 36 49.1025 36 49.5V54C36 54.2325 36.054 54.4635 36.1575 54.6705L39.1575 60.6705C39.354 61.062 39.711 61.3485 40.1355 61.455L45.1575 62.7105L46.515 72.2115C46.56 72.5325 46.71 72.831 46.9395 73.059L49.9395 76.059C50.2275 76.3485 50.6115 76.5 51 76.5C51.2265 76.5 51.4575 76.4475 51.6705 76.3425L57.6705 73.3425C58.179 73.0875 58.5 72.5685 58.5 72V64.854L61.3425 59.1705C61.6815 58.494 61.4625 57.6705 60.8325 57.252L57 54.6975V53.0805L59.526 53.9235C59.904 54.048 60.3165 54.0195 60.672 53.8425L62.7045 52.8255L67.9395 58.0605C68.28 58.401 68.7615 58.551 69.24 58.4805C69.7155 58.4025 70.125 58.1025 70.341 57.6705L73.2315 51.888L74.343 50.7765L76.575 57.474C76.68 57.7905 76.8885 58.062 77.166 58.248L81.666 61.248C82.0725 61.5195 82.584 61.5765 83.04 61.3995C83.4945 61.224 83.835 60.837 83.9535 60.3645L85.4535 54.3645C85.5555 53.955 85.4805 53.52 85.2465 53.169L83.079 49.917L86.331 47.7495C86.6625 47.529 86.892 47.1855 86.97 46.7955L88.47 39.2955C88.548 38.9055 88.4685 38.5005 88.248 38.169L85.9305 34.692L86.268 34.3545L91.8645 32.955C92.3625 32.8305 92.7615 32.46 92.9235 31.974L94.4235 27.474C94.659 26.766 94.338 25.992 93.672 25.6575L75.672 16.6575C75.2505 16.446 74.7525 16.446 74.3295 16.6575L59.886 23.88L56.1645 22.641ZM60.6705 26.8425L75 19.677L91.1655 27.759L90.3375 30.2445L85.1355 31.545C84.8715 31.611 84.6315 31.7475 84.4395 31.9395L82.9395 33.4395C82.434 33.945 82.3545 34.737 82.752 35.3325L85.407 39.315L84.1515 45.597L80.169 48.252C79.4805 48.711 79.2945 49.6425 79.7535 50.3325L82.3845 54.2805L81.5625 57.5715L79.2615 56.0385L76.4235 47.526C76.2585 47.0325 75.8505 46.6605 75.345 46.5405C74.835 46.4175 74.307 46.572 73.9395 46.9395L70.9395 49.9395C70.8255 50.0535 70.731 50.1855 70.6575 50.3295L68.589 54.468L64.0605 49.9395C63.6045 49.4835 62.9085 49.3695 62.3295 49.6575L59.886 50.88L55.9755 49.5765C55.5165 49.4235 55.0155 49.5 54.624 49.7835C54.231 50.0655 54 50.5185 54 51V55.5C54 56.001 54.2505 56.469 54.6675 56.748L58.0665 59.013L55.659 63.828C55.554 64.0365 55.5 64.2675 55.5 64.5V71.073L51.2955 73.1745L49.4145 71.2935L47.985 61.2885C47.8995 60.6855 47.4555 60.1935 46.8645 60.045L41.5335 58.713L39 53.646V50.121L43.0605 46.0605C43.5165 45.6045 43.6305 44.907 43.3425 44.3295L42.177 42L43.164 40.0275L51.8325 34.248C52.2495 33.969 52.5 33.501 52.5 33C52.5 32.499 52.2495 32.031 51.8325 31.752L47.3325 28.752C47.0865 28.5885 46.7955 28.5 46.5 28.5H45.927L47.664 25.0275L51 22.803L54.6675 25.248C54.7785 25.3215 54.8985 25.38 55.0245 25.4235L59.5245 26.9235C59.904 27.0495 60.315 27.018 60.6705 26.8425Z" fill="#111111"/>
<path d="M89.7 65.1C89.265 64.5195 88.4775 64.335 87.8295 64.659L85.386 65.8815L81.4755 64.578C80.9355 64.398 80.343 64.539 79.941 64.941L75.441 69.441C75.1575 69.72 75 70.1025 75 70.5V73.5C75 73.7955 75.0885 74.0865 75.252 74.3325L78.252 78.8325C78.6045 79.3605 79.248 79.6065 79.8645 79.4565L85.221 78.117L89.169 80.748C89.4165 80.9145 89.7075 81 90 81C90.15 81 90.3 80.9775 90.444 80.9325C90.876 80.799 91.224 80.4765 91.392 80.058L94.392 72.558C94.5855 72.072 94.5135 71.52 94.1985 71.1L89.7 65.1ZM89.2935 77.226L86.331 75.252C86.0835 75.087 85.794 75 85.5 75C85.3785 75 85.2555 75.015 85.1355 75.045L80.1615 76.2885L78 73.0455V71.121L81.405 67.716L85.026 68.9235C85.404 69.0495 85.8165 69.018 86.172 68.8425L88.0515 67.902L91.2945 72.2265L89.2935 77.226Z" fill="#111111"/>
<path d="M26 22C24.4092 22.0017 22.8841 22.6344 21.7593 23.7593C20.6344 24.8841 20.0017 26.4092 20 28C20 33.418 25.1563 37.6055 25.375 37.7813C25.5525 37.9229 25.7729 38 26 38C26.2271 38 26.4475 37.9229 26.625 37.7813C26.8438 37.6055 32 33.418 32 28C31.9983 26.4092 31.3656 24.8841 30.2407 23.7593C29.1159 22.6344 27.5908 22.0017 26 22ZM26 35.6582C24.7363 34.4512 22 31.4395 22 28C22 26.9391 22.4214 25.9217 23.1716 25.1716C23.9217 24.4214 24.9391 24 26 24C27.0609 24 28.0783 24.4214 28.8284 25.1716C29.5786 25.9217 30 26.9391 30 28C30 31.4395 27.2637 34.4512 26 35.6582Z" fill="#008B8B"/>
<path d="M64 23C62.4092 23.0017 60.8841 23.6344 59.7593 24.7593C58.6344 25.8841 58.0017 27.4092 58 29C58 34.418 63.1563 38.6055 63.375 38.7813C63.5525 38.9229 63.7729 39 64 39C64.2271 39 64.4475 38.9229 64.625 38.7813C64.8438 38.6055 70 34.418 70 29C69.9983 27.4092 69.3656 25.8841 68.2407 24.7593C67.1159 23.6344 65.5908 23.0017 64 23ZM64 36.6582C62.7363 35.4512 60 32.4395 60 29C60 27.9391 60.4214 26.9217 61.1716 26.1716C61.9217 25.4214 62.9391 25 64 25C65.0609 25 66.0783 25.4214 66.8284 26.1716C67.5786 26.9217 68 27.9391 68 29C68 32.4395 65.2637 35.4512 64 36.6582Z" fill="#008B8B"/>
</svg>
